%
M48
M72
T01C0.0150
T02C0.0354
T03C0.0394
T04C0.0400
T05C0.0730
T06C0.1250
%
T01
X4411Y4601
X6786Y5101
X8536Y6726
X9036Y6226
X9661Y5976
X10786Y4476
X11286Y4476
X13911Y3351
X15661Y5851
X14786Y7976
X12786Y8976
X11786Y9663
X11786Y10663
X10161Y9351
X9661Y8351
X8286Y8476
X7849Y8226
X7474Y7913
X7286Y8351
X6286Y8226
X6036Y9976
X6944Y11601
X7286Y13101
X4911Y12351
X4536Y12101
X4161Y11851
X3536Y10101
X3661Y8101
X2724Y7413
X3471Y7061
X7911Y2601
X13786Y10226
X9099Y10538
X10786Y15101
X20161Y7851
X20161Y4726
T02
X10652Y2476
X8920Y2476
T03
X4286Y1101
X3286Y1101
X15286Y1101
X16286Y1101
X16286Y16101
X15286Y16101
X14286Y16101
X13286Y16101
X12286Y16101
X11286Y16101
X10286Y16101
X9286Y16101
X8286Y16101
X7286Y16101
X6286Y16101
X5286Y16101
X4286Y16101
X3286Y16101
T04
X2551Y15256
X771Y15256
X771Y12696
X1786Y11601
X1786Y10601
X1786Y9601
X1786Y8601
X1786Y7601
X1786Y6601
X2551Y5256
X4286Y6101
X5286Y6101
X6286Y6101
X6286Y7101
X5286Y7101
X4286Y7101
X771Y5256
X771Y2696
X2551Y2696
X2551Y12696
X18036Y14351
X19036Y14351
X20036Y14351
X20036Y15726
X19036Y15726
X18036Y15726
T05
X13286Y12101
X13286Y2101
T06
X1161Y1101
X19161Y1101
X1161Y16476
M30
