G75*
G70*
%OFA0B0*%
%FSLAX24Y24*%
%IPPOS*%
%LPD*%
%AMOC8*
5,1,8,0,0,1.08239X$1,22.5*
%
%ADD10R,0.0220X0.0500*%
%ADD11R,0.0500X0.0220*%
%ADD12C,0.0740*%
%ADD13OC8,0.0600*%
%ADD14C,0.0740*%
%ADD15R,0.0630X0.0710*%
%ADD16R,0.1095X0.1095*%
%ADD17R,0.0630X0.0709*%
%ADD18C,0.0591*%
%ADD19C,0.0600*%
%ADD20R,0.0500X0.0250*%
%ADD21R,0.0591X0.0512*%
%ADD22R,0.0197X0.0984*%
%ADD23R,0.0787X0.0984*%
%ADD24R,0.0709X0.0394*%
%ADD25R,0.0689X0.0276*%
%ADD26R,0.0591X0.0591*%
%ADD27R,0.0610X0.0394*%
%ADD28R,0.0394X0.0581*%
%ADD29R,0.0591X0.0315*%
%ADD30R,0.0551X0.0315*%
%ADD31R,0.0472X0.0217*%
%ADD32R,0.0591X0.0787*%
%ADD33R,0.0787X0.0591*%
%ADD34R,0.0260X0.0800*%
%ADD35R,0.0551X0.0472*%
%ADD36R,0.0512X0.0591*%
%ADD37C,0.0100*%
%ADD38C,0.0290*%
%ADD39C,0.0160*%
%ADD40C,0.0120*%
%ADD41C,0.0320*%
%ADD42C,0.0280*%
%ADD43C,0.0337*%
%ADD44C,0.0240*%
D10*
X005684Y008911D03*
X005999Y008911D03*
X006314Y008911D03*
X006629Y008911D03*
X006944Y008911D03*
X007259Y008911D03*
X007574Y008911D03*
X007889Y008911D03*
X007889Y012291D03*
X007574Y012291D03*
X007259Y012291D03*
X006944Y012291D03*
X006629Y012291D03*
X006314Y012291D03*
X005999Y012291D03*
X005684Y012291D03*
D11*
X005096Y011703D03*
X005096Y011388D03*
X005096Y011073D03*
X005096Y010758D03*
X005096Y010443D03*
X005096Y010128D03*
X005096Y009813D03*
X005096Y009498D03*
X008476Y009498D03*
X008476Y009813D03*
X008476Y010128D03*
X008476Y010443D03*
X008476Y010758D03*
X008476Y011073D03*
X008476Y011388D03*
X008476Y011703D03*
D12*
X000771Y002696D03*
X002551Y002696D03*
X002551Y005256D03*
X000771Y005256D03*
X000771Y012696D03*
X002551Y012696D03*
X002551Y015256D03*
X000771Y015256D03*
D13*
X004286Y007101D03*
X005286Y007101D03*
X006286Y007101D03*
X006286Y006101D03*
X005286Y006101D03*
X004286Y006101D03*
D14*
X002156Y006601D02*
X001416Y006601D01*
X001416Y007601D02*
X002156Y007601D01*
X002156Y008601D02*
X001416Y008601D01*
X001416Y009601D02*
X002156Y009601D01*
X002156Y010601D02*
X001416Y010601D01*
X001416Y011601D02*
X002156Y011601D01*
D15*
X003476Y013976D03*
X004596Y013976D03*
D16*
X013286Y012101D03*
X013286Y002101D03*
D17*
X002587Y013976D03*
X001485Y013976D03*
D18*
X003286Y015806D02*
X003286Y016396D01*
X004286Y016396D02*
X004286Y015806D01*
X005286Y015806D02*
X005286Y016396D01*
X006286Y016396D02*
X006286Y015806D01*
X007286Y015806D02*
X007286Y016396D01*
X008286Y016396D02*
X008286Y015806D01*
X009286Y015806D02*
X009286Y016396D01*
X010286Y016396D02*
X010286Y015806D01*
X011286Y015806D02*
X011286Y016396D01*
X012286Y016396D02*
X012286Y015806D01*
X013286Y015806D02*
X013286Y016396D01*
X014286Y016396D02*
X014286Y015806D01*
X015286Y015806D02*
X015286Y016396D01*
X016286Y016396D02*
X016286Y015806D01*
X016286Y001396D02*
X016286Y000806D01*
X015286Y000806D02*
X015286Y001396D01*
X004286Y001396D02*
X004286Y000806D01*
X003286Y000806D02*
X003286Y001396D01*
D19*
X018036Y014051D02*
X018036Y014651D01*
X018036Y015426D02*
X018036Y016026D01*
X019036Y016026D02*
X019036Y015426D01*
X020036Y015426D02*
X020036Y016026D01*
X020036Y014651D02*
X020036Y014051D01*
X019036Y014051D02*
X019036Y014651D01*
D20*
X012286Y010600D03*
X012286Y010226D03*
X012286Y009852D03*
X011286Y009852D03*
X011286Y010600D03*
D21*
X010536Y010600D03*
X009786Y010600D03*
X009786Y009852D03*
X010536Y009852D03*
X013036Y009852D03*
X013036Y010600D03*
X007911Y013477D03*
X007911Y014225D03*
X019404Y006931D03*
X014536Y004100D03*
X014536Y003352D03*
D22*
X010416Y003460D03*
X010101Y003460D03*
X009786Y003460D03*
X009471Y003460D03*
X009156Y003460D03*
D23*
X008015Y003460D03*
X008015Y001295D03*
X011558Y001295D03*
X011558Y003460D03*
D24*
X014786Y008675D03*
X014786Y009777D03*
D25*
X019452Y006458D03*
X019452Y006025D03*
X019452Y005592D03*
X019452Y005159D03*
X019452Y004726D03*
X019452Y004293D03*
X019452Y003860D03*
X019452Y003427D03*
D26*
X019402Y002462D03*
D27*
X015200Y002531D03*
D28*
X015820Y006945D03*
D29*
X016410Y007078D03*
D30*
X016154Y002373D03*
D31*
X017524Y010227D03*
X017524Y010601D03*
X017524Y010975D03*
X018548Y010975D03*
X018548Y010227D03*
D32*
X018502Y009351D03*
X017321Y009351D03*
D33*
X019411Y009135D03*
X019411Y010316D03*
X014536Y006941D03*
X014536Y005760D03*
D34*
X013786Y005891D03*
X013286Y005891D03*
X012786Y005891D03*
X012286Y005891D03*
X011786Y005891D03*
X011286Y005891D03*
X010786Y005891D03*
X010286Y005891D03*
X010286Y008311D03*
X010786Y008311D03*
X011286Y008311D03*
X011786Y008311D03*
X012286Y008311D03*
X012786Y008311D03*
X013286Y008311D03*
X013786Y008311D03*
D35*
X009594Y013536D03*
X009594Y014166D03*
X008728Y014166D03*
X008728Y013536D03*
D36*
X008787Y012726D03*
X009535Y012726D03*
D37*
X009617Y011701D02*
X010786Y012870D01*
X010786Y013702D01*
X011811Y014726D01*
X017036Y014726D01*
X018036Y015726D01*
X018036Y014351D02*
X011846Y014351D01*
X011036Y013541D01*
X011036Y012796D01*
X009641Y011401D01*
X008489Y011401D01*
X008476Y011388D01*
X008514Y011351D01*
X008504Y011101D02*
X008476Y011073D01*
X008076Y011039D02*
X005496Y011039D01*
X005496Y010941D02*
X008076Y010941D01*
X008076Y010930D02*
X008076Y010615D01*
X008076Y010300D01*
X008076Y010051D01*
X007953Y010051D01*
X007836Y009934D01*
X007836Y009768D01*
X007836Y009311D01*
X007746Y009311D01*
X007431Y009311D01*
X007116Y009311D01*
X006772Y009311D01*
X006769Y009308D01*
X006759Y009311D01*
X006634Y009311D01*
X006634Y009101D01*
X006624Y009101D01*
X006624Y009311D01*
X006499Y009311D01*
X006489Y009308D01*
X006486Y009311D01*
X006171Y009311D01*
X005856Y009311D01*
X005512Y009311D01*
X005424Y009223D01*
X005424Y009101D01*
X005286Y009101D01*
X005286Y009238D01*
X005408Y009238D01*
X005496Y009326D01*
X005496Y009641D01*
X005496Y009956D01*
X005496Y010233D01*
X005741Y009988D01*
X005741Y009917D01*
X005786Y009809D01*
X005869Y009726D01*
X005978Y009681D01*
X006095Y009681D01*
X006203Y009726D01*
X006286Y009809D01*
X006331Y009917D01*
X006331Y010034D01*
X006286Y010143D01*
X006203Y010226D01*
X006095Y010271D01*
X006024Y010271D01*
X005652Y010643D01*
X005496Y010643D01*
X005496Y010901D01*
X005496Y011216D01*
X005496Y011531D01*
X005496Y011776D01*
X005744Y011776D01*
X005859Y011891D01*
X006171Y011891D01*
X006174Y011894D01*
X006184Y011891D01*
X006309Y011891D01*
X006309Y012101D01*
X006319Y012101D01*
X006319Y011891D01*
X006444Y011891D01*
X006454Y011894D01*
X006457Y011891D01*
X006801Y011891D01*
X006804Y011894D01*
X006814Y011891D01*
X006939Y011891D01*
X006939Y012101D01*
X006949Y012101D01*
X006949Y011891D01*
X007073Y011891D01*
X007084Y011894D01*
X007087Y011891D01*
X007401Y011891D01*
X007716Y011891D01*
X008061Y011891D01*
X008149Y011979D01*
X008149Y012101D01*
X008286Y012101D01*
X008286Y011963D01*
X008164Y011963D01*
X008076Y011875D01*
X008076Y011560D01*
X008076Y011245D01*
X008076Y010930D01*
X008076Y010842D02*
X005496Y010842D01*
X005496Y010743D02*
X008076Y010743D01*
X008076Y010645D02*
X005496Y010645D01*
X005569Y010443D02*
X006036Y009976D01*
X006143Y010251D02*
X008076Y010251D01*
X008076Y010349D02*
X005946Y010349D01*
X005847Y010448D02*
X008076Y010448D01*
X008076Y010546D02*
X005748Y010546D01*
X005569Y010443D02*
X005096Y010443D01*
X005096Y010758D02*
X003319Y010758D01*
X003036Y010476D01*
X003036Y009101D01*
X003036Y008101D01*
X003661Y008101D01*
X003911Y007351D02*
X002911Y007351D01*
X002724Y007413D01*
X002724Y007413D01*
X003471Y007061D02*
X003536Y007061D01*
X003536Y007101D01*
X003911Y007351D02*
X004661Y008101D01*
X005684Y008101D01*
X005684Y008911D01*
X005424Y009167D02*
X005286Y009167D01*
X005435Y009265D02*
X005466Y009265D01*
X005496Y009364D02*
X007836Y009364D01*
X007836Y009462D02*
X005496Y009462D01*
X005496Y009561D02*
X007836Y009561D01*
X007836Y009659D02*
X005496Y009659D01*
X005496Y009758D02*
X005837Y009758D01*
X005766Y009857D02*
X005496Y009857D01*
X005496Y009955D02*
X005741Y009955D01*
X005676Y010054D02*
X005496Y010054D01*
X005496Y010152D02*
X005577Y010152D01*
X006277Y010152D02*
X008076Y010152D01*
X008076Y010054D02*
X006323Y010054D01*
X006331Y009955D02*
X007858Y009955D01*
X007836Y009857D02*
X006306Y009857D01*
X006236Y009758D02*
X007836Y009758D01*
X008036Y009851D02*
X008476Y009851D01*
X008476Y009813D01*
X008476Y009498D02*
X008786Y009498D01*
X008786Y007476D01*
X013036Y007476D01*
X014161Y006351D01*
X018286Y006351D01*
X018661Y005976D01*
X019452Y005976D01*
X019471Y005611D02*
X019946Y005611D01*
X019946Y005684D01*
X020008Y005746D01*
X020046Y005837D01*
X020046Y006213D01*
X020034Y006241D01*
X020046Y006271D01*
X020046Y006646D01*
X020008Y006737D01*
X019938Y006808D01*
X019850Y006844D01*
X019850Y006881D01*
X019454Y006881D01*
X019454Y006980D01*
X019850Y006980D01*
X019850Y007206D01*
X019839Y007244D01*
X019820Y007279D01*
X019792Y007306D01*
X019758Y007326D01*
X019719Y007336D01*
X019454Y007336D01*
X019454Y006981D01*
X019354Y006981D01*
X019354Y007336D01*
X019089Y007336D01*
X019051Y007326D01*
X019017Y007306D01*
X018989Y007279D01*
X018969Y007244D01*
X018959Y007206D01*
X018959Y006980D01*
X019354Y006980D01*
X019354Y006881D01*
X018959Y006881D01*
X018959Y006801D01*
X018895Y006737D01*
X018857Y006646D01*
X018857Y006276D01*
X018786Y006276D01*
X018541Y006521D01*
X018456Y006605D01*
X018346Y006651D01*
X016167Y006651D01*
X016167Y006771D01*
X016381Y006771D01*
X016381Y007049D01*
X016439Y007049D01*
X016439Y006771D01*
X016725Y006771D01*
X016763Y006781D01*
X016798Y006801D01*
X016826Y006829D01*
X016845Y006863D01*
X016856Y006901D01*
X016856Y007049D01*
X016439Y007049D01*
X016439Y007107D01*
X016381Y007107D01*
X016381Y007386D01*
X016095Y007386D01*
X016066Y007378D01*
X016036Y007386D01*
X015868Y007386D01*
X015868Y006994D01*
X015771Y006994D01*
X015771Y007386D01*
X015603Y007386D01*
X015565Y007375D01*
X015531Y007356D01*
X015503Y007328D01*
X015483Y007294D01*
X015473Y007255D01*
X015473Y006994D01*
X015771Y006994D01*
X015771Y006897D01*
X015473Y006897D01*
X015473Y006651D01*
X015080Y006651D01*
X015080Y006891D01*
X014586Y006891D01*
X014586Y006991D01*
X015080Y006991D01*
X015080Y007256D01*
X015070Y007294D01*
X015484Y007294D01*
X015473Y007196D02*
X015080Y007196D01*
X015080Y007097D02*
X015473Y007097D01*
X015473Y006999D02*
X015080Y006999D01*
X015070Y007294D02*
X015050Y007329D01*
X015022Y007357D01*
X014988Y007376D01*
X014950Y007387D01*
X014586Y007387D01*
X014586Y006991D01*
X014486Y006991D01*
X014486Y006891D01*
X014045Y006891D01*
X013275Y007661D01*
X013466Y007661D01*
X013536Y007690D01*
X013606Y007661D01*
X013966Y007661D01*
X014058Y007699D01*
X014128Y007769D01*
X014166Y007861D01*
X014166Y008761D01*
X014128Y008852D01*
X014058Y008923D01*
X013966Y008961D01*
X013606Y008961D01*
X013536Y008932D01*
X013466Y008961D01*
X013106Y008961D01*
X013015Y008923D01*
X012949Y008857D01*
X012936Y008861D01*
X012801Y008861D01*
X012801Y008326D01*
X012771Y008326D01*
X012771Y008861D01*
X012636Y008861D01*
X012623Y008857D01*
X012558Y008923D01*
X012466Y008961D01*
X012106Y008961D01*
X012036Y008932D01*
X011966Y008961D01*
X011606Y008961D01*
X011515Y008923D01*
X011449Y008857D01*
X011436Y008861D01*
X011301Y008861D01*
X011301Y008326D01*
X011271Y008326D01*
X011271Y008861D01*
X011136Y008861D01*
X011123Y008857D01*
X011058Y008923D01*
X010966Y008961D01*
X010835Y008961D01*
X010915Y009041D01*
X014248Y009041D01*
X014220Y009013D01*
X014182Y008921D01*
X014182Y008428D01*
X014220Y008336D01*
X014290Y008266D01*
X014376Y008230D01*
X014376Y007894D01*
X014439Y007744D01*
X014554Y007628D01*
X014705Y007566D01*
X014868Y007566D01*
X015018Y007628D01*
X015134Y007744D01*
X015196Y007894D01*
X015196Y008230D01*
X015282Y008266D01*
X015352Y008336D01*
X015391Y008428D01*
X015391Y008921D01*
X015352Y009013D01*
X015325Y009041D01*
X016223Y009041D01*
X016337Y009088D01*
X016424Y009175D01*
X016471Y009289D01*
X016471Y009412D01*
X016471Y010665D01*
X017136Y010665D01*
X017138Y010663D01*
X017138Y010605D01*
X017520Y010605D01*
X017520Y010597D01*
X017138Y010597D01*
X017138Y010539D01*
X017076Y010477D01*
X017057Y010429D01*
X017041Y010414D01*
X016991Y010292D01*
X016991Y009994D01*
X016976Y009994D01*
X016884Y009956D01*
X016814Y009886D01*
X016775Y009794D01*
X016775Y008907D01*
X016814Y008815D01*
X016884Y008745D01*
X016976Y008707D01*
X017666Y008707D01*
X017758Y008745D01*
X017828Y008815D01*
X017866Y008907D01*
X017866Y009794D01*
X017831Y009877D01*
X017879Y009897D01*
X017971Y009897D01*
X018102Y009897D01*
X018157Y009920D01*
X018170Y009907D01*
X018200Y009894D01*
X018187Y009894D01*
X018149Y009884D01*
X018114Y009864D01*
X018086Y009837D01*
X018067Y009802D01*
X018057Y009764D01*
X018057Y009401D01*
X018452Y009401D01*
X018452Y009301D01*
X018552Y009301D01*
X018552Y008807D01*
X018817Y008807D01*
X018855Y008817D01*
X018868Y008825D01*
X018868Y008820D01*
X018878Y008782D01*
X018898Y008748D01*
X018925Y008720D01*
X018960Y008700D01*
X018998Y008690D01*
X019361Y008690D01*
X019361Y009085D01*
X019461Y009085D01*
X019461Y008690D01*
X019771Y008690D01*
X019771Y007941D01*
X019766Y007929D01*
X019766Y007772D01*
X019826Y007627D01*
X019937Y007516D01*
X020083Y007456D01*
X020240Y007456D01*
X020286Y007475D01*
X020286Y005118D01*
X020243Y005136D01*
X020046Y005136D01*
X020046Y005346D01*
X020008Y005438D01*
X019946Y005500D01*
X019946Y005573D01*
X019471Y005573D01*
X019471Y005611D01*
X019432Y005611D02*
X019432Y005573D01*
X018957Y005573D01*
X018957Y005526D01*
X015895Y005526D01*
X015921Y005552D01*
X015961Y005569D01*
X016075Y005687D01*
X016135Y005838D01*
X016132Y006001D01*
X016111Y006051D01*
X018162Y006051D01*
X018407Y005806D01*
X018491Y005721D01*
X018602Y005676D01*
X018957Y005676D01*
X018957Y005611D01*
X019432Y005611D01*
X018957Y005619D02*
X016010Y005619D01*
X016087Y005718D02*
X018500Y005718D01*
X018396Y005816D02*
X016126Y005816D01*
X016134Y005915D02*
X018298Y005915D01*
X018199Y006013D02*
X016127Y006013D01*
X016167Y006703D02*
X018881Y006703D01*
X018857Y006605D02*
X018457Y006605D01*
X018555Y006506D02*
X018857Y006506D01*
X018857Y006408D02*
X018654Y006408D01*
X018752Y006309D02*
X018857Y006309D01*
X018959Y006802D02*
X016799Y006802D01*
X016855Y006900D02*
X019354Y006900D01*
X019354Y006999D02*
X019454Y006999D01*
X019454Y007097D02*
X019354Y007097D01*
X019354Y007196D02*
X019454Y007196D01*
X019454Y007294D02*
X019354Y007294D01*
X019005Y007294D02*
X016845Y007294D01*
X016826Y007328D01*
X016798Y007356D01*
X016763Y007375D01*
X016725Y007386D01*
X016439Y007386D01*
X016439Y007107D01*
X016856Y007107D01*
X016856Y007255D01*
X016845Y007294D01*
X016856Y007196D02*
X018959Y007196D01*
X018959Y007097D02*
X016439Y007097D01*
X016439Y006999D02*
X016381Y006999D01*
X016381Y006900D02*
X016439Y006900D01*
X016439Y006802D02*
X016381Y006802D01*
X015966Y006897D02*
X015868Y006897D01*
X015868Y006994D01*
X015965Y006994D01*
X015965Y006901D01*
X015966Y006897D01*
X015965Y006900D02*
X015868Y006900D01*
X015771Y006900D02*
X014586Y006900D01*
X014536Y006941D02*
X014224Y006941D01*
X014224Y008750D01*
X013998Y008976D01*
X012786Y008976D01*
X012786Y008311D01*
X012771Y008378D02*
X012801Y008378D01*
X012801Y008477D02*
X012771Y008477D01*
X012771Y008576D02*
X012801Y008576D01*
X012801Y008674D02*
X012771Y008674D01*
X012771Y008773D02*
X012801Y008773D01*
X012963Y008871D02*
X012609Y008871D01*
X012786Y008976D02*
X011349Y008976D01*
X011349Y008311D01*
X011286Y008311D01*
X011301Y008326D02*
X011406Y008326D01*
X011406Y008296D01*
X011301Y008296D01*
X011301Y008326D01*
X011301Y008378D02*
X011271Y008378D01*
X011271Y008477D02*
X011301Y008477D01*
X011301Y008576D02*
X011271Y008576D01*
X011271Y008674D02*
X011301Y008674D01*
X011301Y008773D02*
X011271Y008773D01*
X011109Y008871D02*
X011463Y008871D01*
X011349Y008976D02*
X010691Y008976D01*
X010411Y008696D01*
X010411Y008311D01*
X010286Y008311D01*
X010286Y008351D01*
X009661Y008351D01*
X009411Y008378D02*
X010006Y008378D01*
X010006Y008326D02*
X010006Y008541D01*
X009975Y008541D01*
X009861Y008588D01*
X009411Y009037D01*
X009411Y007776D01*
X010090Y007776D01*
X010064Y007791D01*
X010036Y007819D01*
X010016Y007853D01*
X010006Y007891D01*
X010006Y008296D01*
X010271Y008296D01*
X010271Y008326D01*
X010271Y008541D01*
X010301Y008541D01*
X010301Y008326D01*
X010271Y008326D01*
X010006Y008326D01*
X010006Y008280D02*
X009411Y008280D01*
X009411Y008181D02*
X010006Y008181D01*
X010006Y008083D02*
X009411Y008083D01*
X009411Y007984D02*
X010006Y007984D01*
X010008Y007886D02*
X009411Y007886D01*
X009411Y007787D02*
X010070Y007787D01*
X010271Y008378D02*
X010301Y008378D01*
X010301Y008477D02*
X010271Y008477D01*
X010006Y008477D02*
X009411Y008477D01*
X009411Y008576D02*
X009891Y008576D01*
X009775Y008674D02*
X009411Y008674D01*
X009411Y008773D02*
X009676Y008773D01*
X009577Y008871D02*
X009411Y008871D01*
X009411Y008970D02*
X009479Y008970D01*
X010161Y009351D02*
X010161Y009852D01*
X009786Y009852D01*
X010536Y009852D01*
X011286Y009852D01*
X011286Y010600D02*
X010536Y010600D01*
X010140Y011101D02*
X012161Y011101D01*
X012558Y011101D01*
X012911Y010747D01*
X013036Y010600D01*
X012536Y010226D02*
X012286Y010226D01*
X012536Y010226D02*
X013036Y009852D01*
X013161Y009977D01*
X013161Y009976D01*
X013286Y009976D01*
X013786Y009955D02*
X014282Y009955D01*
X014282Y009994D02*
X014282Y009825D01*
X014738Y009825D01*
X014738Y009728D01*
X014282Y009728D01*
X014282Y009661D01*
X013786Y009661D01*
X013786Y011101D01*
X015878Y011101D01*
X015851Y011036D01*
X015851Y009661D01*
X015291Y009661D01*
X015291Y009728D01*
X014835Y009728D01*
X014835Y009825D01*
X015291Y009825D01*
X015291Y009994D01*
X015280Y010032D01*
X015261Y010066D01*
X015233Y010094D01*
X015198Y010114D01*
X015160Y010124D01*
X014835Y010124D01*
X014835Y009826D01*
X014738Y009826D01*
X014738Y010124D01*
X014412Y010124D01*
X014374Y010114D01*
X014340Y010094D01*
X014312Y010066D01*
X014292Y010032D01*
X014282Y009994D01*
X014305Y010054D02*
X013786Y010054D01*
X013786Y010152D02*
X015851Y010152D01*
X015851Y010054D02*
X015268Y010054D01*
X015291Y009955D02*
X015851Y009955D01*
X015851Y009857D02*
X015291Y009857D01*
X014835Y009857D02*
X014738Y009857D01*
X014738Y009955D02*
X014835Y009955D01*
X014835Y010054D02*
X014738Y010054D01*
X014738Y009758D02*
X013786Y009758D01*
X013786Y009857D02*
X014282Y009857D01*
X014835Y009758D02*
X015851Y009758D01*
X015851Y010251D02*
X013786Y010251D01*
X013786Y010349D02*
X015851Y010349D01*
X015851Y010448D02*
X013786Y010448D01*
X013786Y010546D02*
X015851Y010546D01*
X015851Y010645D02*
X013786Y010645D01*
X013786Y010743D02*
X015851Y010743D01*
X015851Y010842D02*
X013786Y010842D01*
X013786Y010941D02*
X015851Y010941D01*
X015852Y011039D02*
X013786Y011039D01*
X012286Y010600D02*
X012161Y010600D01*
X012161Y011101D01*
X010140Y011101D02*
X009786Y010747D01*
X009786Y010600D01*
X009786Y010821D01*
X009786Y010851D01*
X008724Y010851D01*
X008724Y010758D01*
X008476Y010758D01*
X008076Y011138D02*
X005496Y011138D01*
X005496Y011236D02*
X008076Y011236D01*
X008076Y011335D02*
X005496Y011335D01*
X005496Y011433D02*
X008076Y011433D01*
X008076Y011532D02*
X005496Y011532D01*
X005496Y011630D02*
X008076Y011630D01*
X008076Y011729D02*
X005496Y011729D01*
X005661Y011976D02*
X004661Y011976D01*
X004536Y012101D01*
X004161Y011851D02*
X004161Y011830D01*
X004288Y011703D01*
X005096Y011703D01*
X005096Y011388D02*
X003324Y011388D01*
X002536Y010601D01*
X001786Y010601D01*
X001088Y011101D02*
X002763Y011101D01*
X003411Y011749D01*
X003411Y013976D01*
X003476Y013976D01*
X003411Y013976D02*
X002587Y013976D01*
X001786Y013976D02*
X001786Y011601D01*
X001088Y011101D02*
X000911Y010924D01*
X000911Y009278D01*
X001088Y009101D01*
X003036Y009101D01*
X002536Y009601D02*
X002786Y009851D01*
X002786Y010562D01*
X003297Y011073D01*
X005096Y011073D01*
X005796Y011827D02*
X008076Y011827D01*
X008096Y011926D02*
X008127Y011926D01*
X008149Y012025D02*
X008286Y012025D01*
X008476Y011703D02*
X008479Y011701D01*
X009617Y011701D01*
X007286Y012291D02*
X007259Y012291D01*
X006944Y012291D02*
X006944Y011601D01*
X006640Y011601D01*
X006286Y011954D01*
X006286Y012291D01*
X006314Y012291D01*
X006036Y012291D02*
X006036Y012726D01*
X005286Y012726D01*
X004911Y012351D01*
X005661Y012291D02*
X005661Y011976D01*
X005661Y012291D02*
X005684Y012291D01*
X005999Y012291D02*
X006036Y012291D01*
X006309Y012025D02*
X006319Y012025D01*
X006309Y011926D02*
X006319Y011926D01*
X006939Y011926D02*
X006949Y011926D01*
X006939Y012025D02*
X006949Y012025D01*
X006944Y011601D02*
X006944Y010916D01*
X006629Y010601D02*
X006629Y008911D01*
X006629Y007851D01*
X005036Y007851D01*
X004286Y007101D01*
X004786Y007321D02*
X004786Y006601D01*
X005286Y006101D01*
X005786Y006601D02*
X006786Y006601D01*
X006786Y007351D01*
X008286Y007351D01*
X008286Y008476D01*
X008286Y009101D01*
X008036Y009351D01*
X008036Y009851D01*
X007889Y008911D02*
X007836Y008911D01*
X007836Y008226D01*
X007849Y008226D01*
X007836Y008226D02*
X007836Y007601D01*
X005066Y007601D01*
X004786Y007321D01*
X005286Y007101D02*
X005786Y006601D01*
X006286Y006101D02*
X007036Y006101D01*
X007036Y007101D01*
X008786Y007101D01*
X008786Y007476D01*
X008536Y006726D02*
X009411Y006726D01*
X009786Y007101D01*
X012391Y007101D01*
X012786Y006706D01*
X012786Y005891D01*
X012286Y005891D02*
X012286Y005329D01*
X012640Y004976D01*
X017853Y004976D01*
X018536Y004293D01*
X019452Y004293D01*
X019452Y003860D02*
X018161Y003860D01*
X017295Y004726D01*
X011911Y004726D01*
X011286Y005351D01*
X011286Y005891D01*
X010786Y005891D02*
X010786Y005101D01*
X006786Y005101D01*
X009036Y006226D02*
X009557Y006226D01*
X010057Y006726D01*
X011507Y006726D01*
X011786Y006446D01*
X011786Y005891D01*
X010286Y005891D02*
X009661Y005891D01*
X009661Y005976D01*
X009726Y005971D02*
X009616Y005926D01*
X009497Y005926D01*
X009411Y005926D01*
X009411Y005401D01*
X010035Y005401D01*
X010016Y005433D01*
X010006Y005471D01*
X010006Y005876D01*
X010271Y005876D01*
X010271Y005906D01*
X010006Y005906D01*
X010006Y006251D01*
X009726Y005971D01*
X009768Y006013D02*
X010006Y006013D01*
X010006Y005915D02*
X009411Y005915D01*
X009411Y005816D02*
X010006Y005816D01*
X010006Y005718D02*
X009411Y005718D01*
X009411Y005619D02*
X010006Y005619D01*
X010006Y005521D02*
X009411Y005521D01*
X009411Y005422D02*
X010023Y005422D01*
X010006Y006112D02*
X009867Y006112D01*
X009965Y006210D02*
X010006Y006210D01*
X007574Y007913D02*
X007474Y007913D01*
X006944Y007913D01*
X006944Y008911D01*
X006936Y008911D01*
X006636Y008911D02*
X006629Y008911D01*
X006624Y009167D02*
X006634Y009167D01*
X006624Y009265D02*
X006634Y009265D01*
X006314Y008911D02*
X006286Y008911D01*
X006286Y008226D01*
X007259Y008351D02*
X007259Y008911D01*
X007574Y008911D02*
X007574Y007913D01*
X007286Y008351D02*
X007259Y008351D01*
X010844Y008970D02*
X014202Y008970D01*
X014182Y008871D02*
X014109Y008871D01*
X014161Y008773D02*
X014182Y008773D01*
X014182Y008674D02*
X014166Y008674D01*
X014166Y008576D02*
X014182Y008576D01*
X014182Y008477D02*
X014166Y008477D01*
X014166Y008378D02*
X014202Y008378D01*
X014166Y008280D02*
X014276Y008280D01*
X014376Y008181D02*
X014166Y008181D01*
X014166Y008083D02*
X014376Y008083D01*
X014376Y007984D02*
X014166Y007984D01*
X014166Y007886D02*
X014380Y007886D01*
X014421Y007787D02*
X014136Y007787D01*
X014033Y007689D02*
X014494Y007689D01*
X014646Y007590D02*
X013346Y007590D01*
X013445Y007492D02*
X019996Y007492D01*
X019863Y007590D02*
X014926Y007590D01*
X015079Y007689D02*
X019801Y007689D01*
X019766Y007787D02*
X015152Y007787D01*
X015193Y007886D02*
X019766Y007886D01*
X019771Y007984D02*
X015196Y007984D01*
X015196Y008083D02*
X019771Y008083D01*
X019771Y008181D02*
X015196Y008181D01*
X015296Y008280D02*
X019771Y008280D01*
X019771Y008378D02*
X015370Y008378D01*
X015391Y008477D02*
X019771Y008477D01*
X019771Y008576D02*
X015391Y008576D01*
X015391Y008674D02*
X019771Y008674D01*
X019461Y008773D02*
X019361Y008773D01*
X019361Y008871D02*
X019461Y008871D01*
X019461Y008970D02*
X019361Y008970D01*
X019361Y009068D02*
X019461Y009068D01*
X019461Y009185D02*
X019361Y009185D01*
X019361Y009580D01*
X018998Y009580D01*
X018960Y009570D01*
X018947Y009563D01*
X018947Y009764D01*
X018942Y009782D01*
X018968Y009771D01*
X019771Y009771D01*
X019771Y009580D01*
X019461Y009580D01*
X019461Y009185D01*
X019461Y009265D02*
X019361Y009265D01*
X019361Y009364D02*
X019461Y009364D01*
X019461Y009462D02*
X019361Y009462D01*
X019361Y009561D02*
X019461Y009561D01*
X019771Y009659D02*
X018947Y009659D01*
X018947Y009758D02*
X019771Y009758D01*
X018883Y008773D02*
X017785Y008773D01*
X017851Y008871D02*
X018083Y008871D01*
X018086Y008865D02*
X018114Y008837D01*
X018149Y008817D01*
X018187Y008807D01*
X018452Y008807D01*
X018452Y009301D01*
X018057Y009301D01*
X018057Y008937D01*
X018067Y008899D01*
X018086Y008865D01*
X018057Y008970D02*
X017866Y008970D01*
X017866Y009068D02*
X018057Y009068D01*
X018057Y009167D02*
X017866Y009167D01*
X017866Y009265D02*
X018057Y009265D01*
X018057Y009462D02*
X017866Y009462D01*
X017866Y009364D02*
X018452Y009364D01*
X018452Y009265D02*
X018552Y009265D01*
X018552Y009167D02*
X018452Y009167D01*
X018452Y009068D02*
X018552Y009068D01*
X018552Y008970D02*
X018452Y008970D01*
X018452Y008871D02*
X018552Y008871D01*
X018057Y009561D02*
X017866Y009561D01*
X017866Y009659D02*
X018057Y009659D01*
X018057Y009758D02*
X017866Y009758D01*
X017840Y009857D02*
X018106Y009857D01*
X016991Y010054D02*
X016471Y010054D01*
X016471Y010152D02*
X016991Y010152D01*
X016991Y010251D02*
X016471Y010251D01*
X016471Y010349D02*
X017014Y010349D01*
X017064Y010448D02*
X016471Y010448D01*
X016471Y010546D02*
X017138Y010546D01*
X017138Y010645D02*
X016471Y010645D01*
X016471Y009955D02*
X016883Y009955D01*
X016801Y009857D02*
X016471Y009857D01*
X016471Y009758D02*
X016775Y009758D01*
X016775Y009659D02*
X016471Y009659D01*
X016471Y009561D02*
X016775Y009561D01*
X016775Y009462D02*
X016471Y009462D01*
X016471Y009364D02*
X016775Y009364D01*
X016775Y009265D02*
X016461Y009265D01*
X016416Y009167D02*
X016775Y009167D01*
X016775Y009068D02*
X016289Y009068D01*
X016775Y008970D02*
X015370Y008970D01*
X015391Y008871D02*
X016790Y008871D01*
X016856Y008773D02*
X015391Y008773D01*
X014486Y007387D02*
X014123Y007387D01*
X014085Y007376D01*
X014050Y007357D01*
X014023Y007329D01*
X014003Y007294D01*
X013642Y007294D01*
X013740Y007196D02*
X013993Y007196D01*
X013993Y007256D02*
X013993Y006991D01*
X014486Y006991D01*
X014486Y007387D01*
X014486Y007294D02*
X014586Y007294D01*
X014586Y007196D02*
X014486Y007196D01*
X014486Y007097D02*
X014586Y007097D01*
X014586Y006999D02*
X014486Y006999D01*
X014486Y006900D02*
X014036Y006900D01*
X013993Y006999D02*
X013937Y006999D01*
X013993Y007097D02*
X013839Y007097D01*
X013993Y007256D02*
X014003Y007294D01*
X013543Y007393D02*
X020286Y007393D01*
X020286Y007294D02*
X019804Y007294D01*
X019850Y007196D02*
X020286Y007196D01*
X020286Y007097D02*
X019850Y007097D01*
X019850Y006999D02*
X020286Y006999D01*
X020286Y006900D02*
X019454Y006900D01*
X019944Y006802D02*
X020286Y006802D01*
X020286Y006703D02*
X020022Y006703D01*
X020046Y006605D02*
X020286Y006605D01*
X020286Y006506D02*
X020046Y006506D01*
X020046Y006408D02*
X020286Y006408D01*
X020286Y006309D02*
X020046Y006309D01*
X020046Y006210D02*
X020286Y006210D01*
X020286Y006112D02*
X020046Y006112D01*
X020046Y006013D02*
X020286Y006013D01*
X020286Y005915D02*
X020046Y005915D01*
X020037Y005816D02*
X020286Y005816D01*
X020286Y005718D02*
X019980Y005718D01*
X019946Y005619D02*
X020286Y005619D01*
X020286Y005521D02*
X019946Y005521D01*
X020015Y005422D02*
X020286Y005422D01*
X020286Y005324D02*
X020046Y005324D01*
X020046Y005225D02*
X020286Y005225D01*
X020286Y005126D02*
X020265Y005126D01*
X019452Y005159D02*
X019452Y005226D01*
X013411Y005226D01*
X013286Y005351D01*
X013286Y005891D01*
X014411Y005893D02*
X014411Y005760D01*
X014536Y005760D01*
X015080Y006703D02*
X015473Y006703D01*
X015473Y006802D02*
X015080Y006802D01*
X015771Y006999D02*
X015868Y006999D01*
X015868Y007097D02*
X015771Y007097D01*
X015771Y007196D02*
X015868Y007196D01*
X015868Y007294D02*
X015771Y007294D01*
X016381Y007294D02*
X016439Y007294D01*
X016439Y007196D02*
X016381Y007196D01*
X016856Y006999D02*
X018959Y006999D01*
X017171Y004426D02*
X017991Y003605D01*
X018102Y003560D01*
X018221Y003560D01*
X018857Y003560D01*
X018857Y003239D01*
X018895Y003147D01*
X018966Y003077D01*
X019057Y003039D01*
X019846Y003039D01*
X019938Y003077D01*
X020008Y003147D01*
X020046Y003239D01*
X020046Y003614D01*
X020034Y003643D01*
X020046Y003672D01*
X020046Y004047D01*
X020034Y004076D01*
X020046Y004105D01*
X020046Y004316D01*
X020243Y004316D01*
X020286Y004334D01*
X020286Y001976D01*
X014286Y001976D01*
X014286Y002170D01*
X014287Y002170D01*
X014286Y002170D02*
X014346Y002146D01*
X014729Y002146D01*
X014753Y002122D01*
X014845Y002084D01*
X015554Y002084D01*
X015646Y002122D01*
X015717Y002192D01*
X015729Y002222D01*
X015729Y002196D01*
X015739Y002158D01*
X015759Y002124D01*
X015787Y002096D01*
X015821Y002076D01*
X015859Y002066D01*
X016126Y002066D01*
X016126Y002344D01*
X016183Y002344D01*
X016183Y002066D01*
X016450Y002066D01*
X016488Y002076D01*
X016522Y002096D01*
X016550Y002124D01*
X016570Y002158D01*
X016580Y002196D01*
X016580Y002345D01*
X016183Y002345D01*
X016183Y002402D01*
X016580Y002402D01*
X016580Y002551D01*
X016570Y002589D01*
X016550Y002623D01*
X016522Y002651D01*
X016488Y002671D01*
X016450Y002681D01*
X016183Y002681D01*
X016183Y002402D01*
X016126Y002402D01*
X016126Y002681D01*
X015859Y002681D01*
X015821Y002671D01*
X015787Y002651D01*
X015759Y002623D01*
X015755Y002616D01*
X015755Y002777D01*
X015717Y002869D01*
X015646Y002940D01*
X015554Y002978D01*
X015053Y002978D01*
X015081Y003046D01*
X015081Y003657D01*
X015053Y003726D01*
X015081Y003794D01*
X015081Y004405D01*
X015073Y004426D01*
X017171Y004426D01*
X017258Y004338D02*
X015081Y004338D01*
X015081Y004240D02*
X017357Y004240D01*
X017456Y004141D02*
X015081Y004141D01*
X015081Y004043D02*
X017554Y004043D01*
X017653Y003944D02*
X015081Y003944D01*
X015081Y003845D02*
X017751Y003845D01*
X017850Y003747D02*
X015062Y003747D01*
X015081Y003648D02*
X017948Y003648D01*
X018857Y003550D02*
X015081Y003550D01*
X015081Y003451D02*
X018857Y003451D01*
X018857Y003353D02*
X015081Y003353D01*
X015081Y003254D02*
X018857Y003254D01*
X018892Y003156D02*
X015081Y003156D01*
X015081Y003057D02*
X019013Y003057D01*
X019049Y002897D02*
X019015Y002877D01*
X018987Y002849D01*
X018967Y002815D01*
X018957Y002777D01*
X018957Y002512D01*
X019352Y002512D01*
X019352Y002412D01*
X018957Y002412D01*
X018957Y002147D01*
X018967Y002109D01*
X018987Y002075D01*
X019015Y002047D01*
X019049Y002027D01*
X019087Y002017D01*
X019352Y002017D01*
X019352Y002412D01*
X019452Y002412D01*
X019452Y002017D01*
X019717Y002017D01*
X019756Y002027D01*
X019790Y002047D01*
X019818Y002075D01*
X019837Y002109D01*
X019848Y002147D01*
X019848Y002412D01*
X019453Y002412D01*
X019453Y002512D01*
X019848Y002512D01*
X019848Y002777D01*
X019837Y002815D01*
X019818Y002849D01*
X019790Y002877D01*
X019756Y002897D01*
X019717Y002907D01*
X019452Y002907D01*
X019452Y002512D01*
X019352Y002512D01*
X019352Y002907D01*
X019087Y002907D01*
X019049Y002897D01*
X018998Y002860D02*
X015721Y002860D01*
X015755Y002761D02*
X018957Y002761D01*
X018957Y002663D02*
X016501Y002663D01*
X016576Y002564D02*
X018957Y002564D01*
X018957Y002367D02*
X016183Y002367D01*
X016183Y002269D02*
X016126Y002269D01*
X016126Y002170D02*
X016183Y002170D01*
X016183Y002072D02*
X016126Y002072D01*
X015838Y002072D02*
X014286Y002072D01*
X015694Y002170D02*
X015736Y002170D01*
X016126Y002466D02*
X016183Y002466D01*
X016183Y002564D02*
X016126Y002564D01*
X016126Y002663D02*
X016183Y002663D01*
X015808Y002663D02*
X015755Y002663D01*
X015601Y002959D02*
X020286Y002959D01*
X020286Y003057D02*
X019890Y003057D01*
X020011Y003156D02*
X020286Y003156D01*
X020286Y003254D02*
X020046Y003254D01*
X020046Y003353D02*
X020286Y003353D01*
X020286Y003451D02*
X020046Y003451D01*
X020046Y003550D02*
X020286Y003550D01*
X020286Y003648D02*
X020036Y003648D01*
X020046Y003747D02*
X020286Y003747D01*
X020286Y003845D02*
X020046Y003845D01*
X020046Y003944D02*
X020286Y003944D01*
X020286Y004043D02*
X020046Y004043D01*
X020046Y004141D02*
X020286Y004141D01*
X020286Y004240D02*
X020046Y004240D01*
X019807Y002860D02*
X020286Y002860D01*
X020286Y002761D02*
X019848Y002761D01*
X019848Y002663D02*
X020286Y002663D01*
X020286Y002564D02*
X019848Y002564D01*
X019848Y002367D02*
X020286Y002367D01*
X020286Y002269D02*
X019848Y002269D01*
X019848Y002170D02*
X020286Y002170D01*
X020286Y002072D02*
X019815Y002072D01*
X019452Y002072D02*
X019352Y002072D01*
X019352Y002170D02*
X019452Y002170D01*
X019452Y002269D02*
X019352Y002269D01*
X019352Y002367D02*
X019452Y002367D01*
X019453Y002466D02*
X020286Y002466D01*
X019452Y002564D02*
X019352Y002564D01*
X019352Y002466D02*
X016580Y002466D01*
X016580Y002269D02*
X018957Y002269D01*
X018957Y002170D02*
X016573Y002170D01*
X016471Y002072D02*
X018990Y002072D01*
X019352Y002663D02*
X019452Y002663D01*
X019452Y002761D02*
X019352Y002761D01*
X019352Y002860D02*
X019452Y002860D01*
X013539Y007689D02*
X013533Y007689D01*
X010416Y003460D02*
X010411Y003460D01*
X002536Y009601D02*
X001786Y009601D01*
X002135Y009601D01*
X001786Y013976D02*
X001485Y013976D01*
D38*
X004161Y011851D03*
X004536Y012101D03*
X004911Y012351D03*
X006944Y011601D03*
X007286Y013101D03*
X009099Y010538D03*
X010161Y009351D03*
X009661Y008351D03*
X008286Y008476D03*
X007849Y008226D03*
X007474Y007913D03*
X007286Y008351D03*
X006286Y008226D03*
X006036Y009976D03*
X003536Y010101D03*
X003661Y008101D03*
X002724Y007413D03*
X003471Y007061D03*
X004411Y004601D03*
X006786Y005101D03*
X008536Y006726D03*
X009036Y006226D03*
X009661Y005976D03*
X012786Y008976D03*
X011786Y009663D03*
X011786Y010663D03*
X013786Y010226D03*
X014786Y007976D03*
X015661Y005851D03*
X013911Y003351D03*
X007911Y002601D03*
X020161Y004726D03*
X020161Y007851D03*
X010786Y015101D03*
D39*
X008286Y015101D01*
X008286Y016101D01*
X009286Y016101D01*
X012061Y013476D02*
X018661Y013476D01*
X019036Y013851D01*
X019036Y014351D01*
X019036Y015726D01*
X020036Y015726D02*
X020036Y014351D01*
X018036Y012101D02*
X013286Y012101D01*
X012061Y013476D02*
X009686Y011101D01*
X008504Y011101D01*
X007286Y012291D02*
X007286Y013101D01*
X006629Y013101D01*
X004596Y013976D01*
X004536Y013976D01*
X006629Y013101D02*
X006629Y012291D01*
X003536Y007101D02*
X001786Y007101D01*
X013286Y009976D02*
X013786Y009976D01*
X013786Y010226D01*
X014786Y010226D01*
X014786Y009777D01*
X016661Y010601D02*
X016661Y008601D01*
X018411Y008601D01*
X018411Y009351D01*
X018502Y009351D01*
X019411Y009351D01*
X019411Y009135D01*
X018572Y010227D02*
X018548Y010227D01*
X018036Y010227D02*
X018036Y012101D01*
X017524Y010601D02*
X016661Y010601D01*
X017321Y010227D02*
X017321Y009351D01*
X017321Y010227D02*
X017524Y010227D01*
X018036Y010227D01*
X016410Y007101D02*
X015911Y007101D01*
X015661Y007101D01*
X015820Y006945D02*
X015911Y006945D01*
X015911Y007101D01*
X016410Y007101D02*
X016410Y007078D01*
X015724Y005913D02*
X015724Y005851D01*
X015661Y005851D01*
X014411Y005893D02*
X014286Y005891D01*
X013786Y005891D01*
X014411Y003352D02*
X014411Y002476D01*
X015200Y002476D01*
X015200Y002531D01*
X014536Y003352D02*
X014411Y003352D01*
X019452Y005976D02*
X019452Y006025D01*
D40*
X016161Y009351D02*
X010786Y009351D01*
X010286Y008851D01*
X010036Y008851D01*
X009536Y009351D01*
X009286Y009351D01*
X009161Y009476D01*
X009161Y009976D01*
X009036Y010101D01*
X008476Y010101D01*
X008476Y010128D01*
X008476Y010443D02*
X008509Y010476D01*
X009099Y010538D01*
X009603Y011976D02*
X008153Y011976D01*
X008154Y011977D01*
X008154Y012304D01*
X008376Y012453D01*
X008376Y012366D01*
X008467Y012276D01*
X009107Y012276D01*
X009161Y012329D01*
X009215Y012276D01*
X009855Y012276D01*
X009946Y012366D01*
X009946Y013085D01*
X009887Y013145D01*
X009934Y013145D01*
X010025Y013235D01*
X010025Y013836D01*
X010010Y013851D01*
X010019Y013868D01*
X010030Y013908D01*
X010030Y014108D01*
X009653Y014108D01*
X009653Y014224D01*
X010030Y014224D01*
X010030Y014423D01*
X010019Y014464D01*
X009998Y014500D01*
X009968Y014530D01*
X009932Y014551D01*
X009891Y014562D01*
X009652Y014562D01*
X009652Y014224D01*
X009536Y014224D01*
X009536Y014108D01*
X009159Y014108D01*
X009159Y013908D01*
X009170Y013868D01*
X009179Y013851D01*
X009164Y013836D01*
X009164Y013235D01*
X009223Y013176D01*
X009215Y013176D01*
X009161Y013122D01*
X009107Y013176D01*
X009106Y013176D01*
X009132Y013201D01*
X009153Y013238D01*
X009164Y013279D01*
X009164Y013478D01*
X008787Y013478D01*
X008787Y013594D01*
X009164Y013594D01*
X009164Y013793D01*
X009153Y013834D01*
X009143Y013850D01*
X009159Y013865D01*
X009159Y014466D01*
X009068Y014557D01*
X008411Y014557D01*
X008411Y014601D01*
X010411Y014601D01*
X010411Y012784D01*
X009603Y011976D01*
X009700Y012074D02*
X008154Y012074D01*
X008154Y012192D02*
X009819Y012192D01*
X009891Y012311D02*
X009938Y012311D01*
X009946Y012429D02*
X010056Y012429D01*
X009946Y012548D02*
X010175Y012548D01*
X010293Y012666D02*
X009946Y012666D01*
X009946Y012785D02*
X010411Y012785D01*
X010411Y012903D02*
X009946Y012903D01*
X009946Y013022D02*
X010411Y013022D01*
X010411Y013141D02*
X009891Y013141D01*
X010025Y013259D02*
X010411Y013259D01*
X010411Y013378D02*
X010025Y013378D01*
X010025Y013496D02*
X010411Y013496D01*
X010411Y013615D02*
X010025Y013615D01*
X010025Y013733D02*
X010411Y013733D01*
X010411Y013852D02*
X010010Y013852D01*
X010030Y013970D02*
X010411Y013970D01*
X010411Y014089D02*
X010030Y014089D01*
X010030Y014326D02*
X010411Y014326D01*
X010411Y014445D02*
X010024Y014445D01*
X009652Y014445D02*
X009536Y014445D01*
X009536Y014562D02*
X009536Y014224D01*
X009159Y014224D01*
X009159Y014423D01*
X009170Y014464D01*
X009191Y014500D01*
X009220Y014530D01*
X009257Y014551D01*
X009298Y014562D01*
X009536Y014562D01*
X009536Y014326D02*
X009652Y014326D01*
X009653Y014207D02*
X010411Y014207D01*
X010411Y014563D02*
X008411Y014563D01*
X008728Y014166D02*
X007911Y014166D01*
X007911Y014225D01*
X007911Y013477D02*
X007911Y013101D01*
X007574Y013101D01*
X007574Y012291D01*
X007889Y012291D02*
X007889Y012475D01*
X008140Y012726D01*
X008787Y012726D01*
X008376Y012429D02*
X008341Y012429D01*
X008432Y012311D02*
X008164Y012311D01*
X009143Y012311D02*
X009180Y012311D01*
X009594Y012601D02*
X009594Y013536D01*
X009164Y013496D02*
X008787Y013496D01*
X009164Y013378D02*
X009164Y013378D01*
X009159Y013259D02*
X009164Y013259D01*
X009143Y013141D02*
X009180Y013141D01*
X009164Y013615D02*
X009164Y013615D01*
X009164Y013733D02*
X009164Y013733D01*
X009179Y013852D02*
X009145Y013852D01*
X009159Y013970D02*
X009159Y013970D01*
X009159Y014089D02*
X009159Y014089D01*
X009159Y014207D02*
X009536Y014207D01*
X009159Y014326D02*
X009159Y014326D01*
X009159Y014445D02*
X009165Y014445D01*
X009535Y012726D02*
X009594Y012601D01*
X011786Y010663D02*
X011786Y009663D01*
X016161Y009351D02*
X016161Y010975D01*
X017524Y010975D01*
X010411Y004226D02*
X004411Y004226D01*
X004411Y004601D01*
X004286Y007101D02*
X003536Y007101D01*
X003861Y007101D02*
X003961Y007101D01*
X004053Y007139D01*
X004055Y007141D01*
X004246Y007141D01*
X004246Y007101D01*
X002919Y007101D01*
X002920Y007101D01*
X003861Y007101D01*
X004475Y007561D02*
X004765Y007851D01*
X005634Y007851D01*
X005734Y007851D01*
X005825Y007889D01*
X005896Y007959D01*
X005934Y008051D01*
X005934Y008461D01*
X006033Y008461D01*
X005994Y008421D01*
X005941Y008294D01*
X005941Y008157D01*
X005994Y008030D01*
X006091Y007933D01*
X006218Y007881D01*
X006355Y007881D01*
X006482Y007933D01*
X006579Y008030D01*
X006631Y008157D01*
X006631Y008294D01*
X006579Y008421D01*
X006536Y008464D01*
X006536Y008490D01*
X006547Y008501D01*
X006629Y008501D01*
X006694Y008501D01*
X006694Y007864D01*
X006699Y007851D01*
X005016Y007851D01*
X004924Y007813D01*
X004854Y007742D01*
X004574Y007463D01*
X004477Y007561D01*
X004475Y007561D01*
X004483Y007569D02*
X004681Y007569D01*
X004601Y007688D02*
X004799Y007688D01*
X004720Y007806D02*
X004918Y007806D01*
X005861Y007925D02*
X006112Y007925D01*
X005988Y008043D02*
X005931Y008043D01*
X005934Y008162D02*
X005941Y008162D01*
X005934Y008280D02*
X005941Y008280D01*
X005934Y008399D02*
X005985Y008399D01*
X006588Y008399D02*
X006694Y008399D01*
X006694Y008280D02*
X006631Y008280D01*
X006631Y008162D02*
X006694Y008162D01*
X006694Y008043D02*
X006584Y008043D01*
X006694Y007925D02*
X006461Y007925D01*
X006629Y008501D02*
X006629Y008910D01*
X006629Y008501D01*
X006629Y008517D02*
X006629Y008517D01*
X006629Y008636D02*
X006629Y008636D01*
X006629Y008754D02*
X006629Y008754D01*
X006629Y008873D02*
X006629Y008873D01*
X006629Y008910D02*
X006629Y008910D01*
X006629Y008911D02*
X006629Y008911D01*
X006629Y009321D01*
X006711Y009321D01*
X006751Y009361D01*
X006786Y009361D01*
X006786Y011726D01*
X006729Y011841D01*
X006436Y011841D01*
X006396Y011881D01*
X006314Y011881D01*
X006314Y012290D01*
X006314Y012290D01*
X006314Y011881D01*
X006232Y011881D01*
X006192Y011841D01*
X005876Y011841D01*
X005873Y011834D01*
X005803Y011764D01*
X005711Y011726D01*
X005546Y011726D01*
X005546Y011510D01*
X005546Y011195D01*
X005546Y010880D01*
X005546Y010693D01*
X005618Y010693D01*
X005710Y010655D01*
X006045Y010321D01*
X006105Y010321D01*
X006232Y010268D01*
X006329Y010171D01*
X006381Y010044D01*
X006381Y009907D01*
X006329Y009780D01*
X006232Y009683D01*
X006105Y009631D01*
X005968Y009631D01*
X005841Y009683D01*
X005744Y009780D01*
X005691Y009907D01*
X005691Y009967D01*
X005546Y010112D01*
X005546Y009935D01*
X005546Y009621D01*
X005546Y009361D01*
X005877Y009361D01*
X006192Y009361D01*
X006507Y009361D01*
X006547Y009321D01*
X006629Y009321D01*
X006629Y008911D01*
X006629Y008992D02*
X006629Y008992D01*
X006629Y009110D02*
X006629Y009110D01*
X006629Y009229D02*
X006629Y009229D01*
X006737Y009347D02*
X006520Y009347D01*
X006786Y009466D02*
X005546Y009466D01*
X005546Y009584D02*
X006786Y009584D01*
X006786Y009703D02*
X006251Y009703D01*
X006346Y009821D02*
X006786Y009821D01*
X006786Y009940D02*
X006381Y009940D01*
X006375Y010058D02*
X006786Y010058D01*
X006786Y010177D02*
X006323Y010177D01*
X006166Y010296D02*
X006786Y010296D01*
X006786Y010414D02*
X005951Y010414D01*
X005833Y010533D02*
X006786Y010533D01*
X006786Y010651D02*
X005714Y010651D01*
X005546Y010770D02*
X006786Y010770D01*
X006786Y010888D02*
X005546Y010888D01*
X005546Y011007D02*
X006786Y011007D01*
X006786Y011125D02*
X005546Y011125D01*
X005546Y011244D02*
X006786Y011244D01*
X006786Y011362D02*
X005546Y011362D01*
X005546Y011481D02*
X006786Y011481D01*
X006786Y011599D02*
X005546Y011599D01*
X005546Y011718D02*
X006786Y011718D01*
X006731Y011837D02*
X005874Y011837D01*
X006314Y011955D02*
X006314Y011955D01*
X006314Y012074D02*
X006314Y012074D01*
X006314Y012192D02*
X006314Y012192D01*
X006314Y012291D02*
X006314Y012701D01*
X006314Y012291D01*
X006314Y012291D01*
X006314Y012311D02*
X006314Y012311D01*
X006314Y012429D02*
X006314Y012429D01*
X006314Y012548D02*
X006314Y012548D01*
X006314Y012666D02*
X006314Y012666D01*
X006314Y012701D02*
X006286Y012701D01*
X006286Y012776D01*
X006248Y012867D01*
X006178Y012938D01*
X006086Y012976D01*
X005336Y012976D01*
X005236Y012976D01*
X005145Y012938D01*
X004903Y012696D01*
X004843Y012696D01*
X004716Y012643D01*
X004619Y012546D01*
X004577Y012446D01*
X004468Y012446D01*
X004341Y012393D01*
X004244Y012296D01*
X004202Y012196D01*
X004093Y012196D01*
X003966Y012143D01*
X003869Y012046D01*
X003816Y011919D01*
X003816Y011782D01*
X003869Y011655D01*
X003886Y011638D01*
X003636Y011638D01*
X003661Y011699D01*
X003661Y013421D01*
X003874Y013421D01*
X003991Y013538D01*
X003991Y014414D01*
X003874Y014531D01*
X003079Y014531D01*
X003032Y014484D01*
X002985Y014530D01*
X002190Y014530D01*
X002072Y014413D01*
X002072Y013539D01*
X002190Y013421D01*
X002985Y013421D01*
X003032Y013468D01*
X003079Y013421D01*
X003161Y013421D01*
X003161Y011852D01*
X002677Y011368D01*
X002726Y011487D01*
X002726Y011714D01*
X002639Y011924D01*
X002479Y012084D01*
X002270Y012171D01*
X002036Y012171D01*
X002036Y012450D01*
X002068Y012373D01*
X002228Y012213D01*
X002438Y012126D01*
X002665Y012126D01*
X002874Y012213D01*
X003034Y012373D01*
X003121Y012582D01*
X003121Y012809D01*
X003034Y013019D01*
X002874Y013179D01*
X002665Y013266D01*
X002438Y013266D01*
X002228Y013179D01*
X002068Y013019D01*
X002036Y012942D01*
X002036Y014026D01*
X002000Y014113D01*
X002000Y014413D01*
X001883Y014530D01*
X001087Y014530D01*
X000970Y014413D01*
X000970Y013539D01*
X001087Y013421D01*
X001536Y013421D01*
X001536Y012171D01*
X001303Y012171D01*
X001093Y012084D01*
X000933Y011924D01*
X000846Y011714D01*
X000846Y011487D01*
X000927Y011293D01*
X000876Y011242D01*
X000770Y011136D01*
X000770Y011136D01*
X000699Y011066D01*
X000661Y010974D01*
X000661Y009228D01*
X000699Y009136D01*
X000770Y009066D01*
X000927Y008909D01*
X000846Y008714D01*
X000846Y008487D01*
X000933Y008278D01*
X001093Y008118D01*
X001187Y008079D01*
X001138Y008054D01*
X001071Y008005D01*
X001012Y007946D01*
X000963Y007879D01*
X000925Y007804D01*
X000899Y007725D01*
X000886Y007642D01*
X000886Y007641D01*
X001746Y007641D01*
X001746Y007561D01*
X000886Y007561D01*
X000886Y007559D01*
X000899Y007477D01*
X000925Y007397D01*
X000963Y007323D01*
X001012Y007256D01*
X001071Y007197D01*
X001138Y007147D01*
X001213Y007110D01*
X001240Y007101D01*
X000371Y007101D01*
X000371Y012346D01*
X000426Y012292D01*
X000493Y012242D01*
X000568Y012205D01*
X000647Y012179D01*
X000730Y012166D01*
X000731Y012166D01*
X000731Y012656D01*
X000371Y012656D01*
X000371Y012736D01*
X000731Y012736D01*
X000731Y013226D01*
X000730Y013226D01*
X000647Y013213D01*
X000568Y013187D01*
X000493Y013149D01*
X000426Y013100D01*
X000371Y013045D01*
X000371Y014850D01*
X000448Y014773D01*
X000658Y014686D01*
X000885Y014686D01*
X001094Y014773D01*
X001254Y014933D01*
X001341Y015142D01*
X001341Y015369D01*
X001254Y015579D01*
X001192Y015641D01*
X001327Y015641D01*
X001634Y015768D01*
X001869Y016003D01*
X001996Y016310D01*
X001996Y016642D01*
X001869Y016949D01*
X001717Y017101D01*
X006786Y017101D01*
X006786Y013381D01*
X006686Y013381D01*
X005111Y014059D01*
X005111Y014414D01*
X004994Y014531D01*
X004198Y014531D01*
X004081Y014414D01*
X004081Y013538D01*
X004198Y013421D01*
X004994Y013421D01*
X005049Y013476D01*
X006349Y012916D01*
X006349Y012701D01*
X006314Y012701D01*
X006282Y012785D02*
X006349Y012785D01*
X006349Y012903D02*
X006212Y012903D01*
X006104Y013022D02*
X003661Y013022D01*
X003661Y012903D02*
X005110Y012903D01*
X004992Y012785D02*
X003661Y012785D01*
X003661Y012666D02*
X004772Y012666D01*
X004620Y012548D02*
X003661Y012548D01*
X003661Y012429D02*
X004428Y012429D01*
X004258Y012311D02*
X003661Y012311D01*
X003661Y012192D02*
X004084Y012192D01*
X003896Y012074D02*
X003661Y012074D01*
X003661Y011955D02*
X003831Y011955D01*
X003816Y011837D02*
X003661Y011837D01*
X003661Y011718D02*
X003843Y011718D01*
X003146Y011837D02*
X002676Y011837D01*
X002725Y011718D02*
X003027Y011718D01*
X002908Y011599D02*
X002726Y011599D01*
X002724Y011481D02*
X002790Y011481D01*
X002608Y011955D02*
X003161Y011955D01*
X003161Y012074D02*
X002489Y012074D01*
X002277Y012192D02*
X002036Y012192D01*
X002036Y012311D02*
X002130Y012311D01*
X002045Y012429D02*
X002036Y012429D01*
X001536Y012429D02*
X001230Y012429D01*
X001225Y012418D02*
X001262Y012492D01*
X001288Y012572D01*
X001301Y012654D01*
X001301Y012656D01*
X000811Y012656D01*
X000811Y012166D01*
X000813Y012166D01*
X000895Y012179D01*
X000975Y012205D01*
X001049Y012242D01*
X001116Y012292D01*
X001175Y012351D01*
X001225Y012418D01*
X001136Y012311D02*
X001536Y012311D01*
X001536Y012192D02*
X000936Y012192D01*
X000811Y012192D02*
X000731Y012192D01*
X000731Y012311D02*
X000811Y012311D01*
X000811Y012429D02*
X000731Y012429D01*
X000731Y012548D02*
X000811Y012548D01*
X000811Y012656D02*
X000731Y012656D01*
X000731Y012736D01*
X000811Y012736D01*
X000811Y013226D01*
X000813Y013226D01*
X000895Y013213D01*
X000975Y013187D01*
X001049Y013149D01*
X001116Y013100D01*
X001175Y013041D01*
X001225Y012974D01*
X001262Y012899D01*
X001288Y012820D01*
X001301Y012737D01*
X001301Y012736D01*
X000811Y012736D01*
X000811Y012656D01*
X000811Y012666D02*
X001536Y012666D01*
X001536Y012548D02*
X001280Y012548D01*
X001294Y012785D02*
X001536Y012785D01*
X001536Y012903D02*
X001260Y012903D01*
X001189Y013022D02*
X001536Y013022D01*
X001536Y013141D02*
X001061Y013141D01*
X000811Y013141D02*
X000731Y013141D01*
X000731Y013022D02*
X000811Y013022D01*
X000811Y012903D02*
X000731Y012903D01*
X000731Y012785D02*
X000811Y012785D01*
X000771Y012696D02*
X000661Y012696D01*
X000661Y007601D01*
X001786Y007601D01*
X001746Y007569D02*
X000371Y007569D01*
X000371Y007450D02*
X000908Y007450D01*
X000958Y007332D02*
X000371Y007332D01*
X000371Y007213D02*
X001054Y007213D01*
X000893Y007688D02*
X000371Y007688D01*
X000371Y007806D02*
X000926Y007806D01*
X000996Y007925D02*
X000371Y007925D01*
X000371Y008043D02*
X001124Y008043D01*
X001049Y008162D02*
X000371Y008162D01*
X000371Y008280D02*
X000932Y008280D01*
X000883Y008399D02*
X000371Y008399D01*
X000371Y008517D02*
X000846Y008517D01*
X000846Y008636D02*
X000371Y008636D01*
X000371Y008754D02*
X000863Y008754D01*
X000912Y008873D02*
X000371Y008873D01*
X000371Y008992D02*
X000844Y008992D01*
X000725Y009110D02*
X000371Y009110D01*
X000371Y009229D02*
X000661Y009229D01*
X000661Y009347D02*
X000371Y009347D01*
X000371Y009466D02*
X000661Y009466D01*
X000661Y009584D02*
X000371Y009584D01*
X000371Y009703D02*
X000661Y009703D01*
X000661Y009821D02*
X000371Y009821D01*
X000371Y009940D02*
X000661Y009940D01*
X000661Y010058D02*
X000371Y010058D01*
X000371Y010177D02*
X000661Y010177D01*
X000661Y010296D02*
X000371Y010296D01*
X000371Y010414D02*
X000661Y010414D01*
X000661Y010533D02*
X000371Y010533D01*
X000371Y010651D02*
X000661Y010651D01*
X000661Y010770D02*
X000371Y010770D01*
X000371Y010888D02*
X000661Y010888D01*
X000675Y011007D02*
X000371Y011007D01*
X000371Y011125D02*
X000759Y011125D01*
X000876Y011242D02*
X000876Y011242D01*
X000878Y011244D02*
X000371Y011244D01*
X000371Y011362D02*
X000898Y011362D01*
X000849Y011481D02*
X000371Y011481D01*
X000371Y011599D02*
X000846Y011599D01*
X000848Y011718D02*
X000371Y011718D01*
X000371Y011837D02*
X000897Y011837D01*
X000964Y011955D02*
X000371Y011955D01*
X000371Y012074D02*
X001083Y012074D01*
X000606Y012192D02*
X000371Y012192D01*
X000371Y012311D02*
X000407Y012311D01*
X000371Y012666D02*
X000731Y012666D01*
X000482Y013141D02*
X000371Y013141D01*
X000371Y013259D02*
X001536Y013259D01*
X001536Y013378D02*
X000371Y013378D01*
X000371Y013496D02*
X001013Y013496D01*
X000970Y013615D02*
X000371Y013615D01*
X000371Y013733D02*
X000970Y013733D01*
X000970Y013852D02*
X000371Y013852D01*
X000371Y013970D02*
X000970Y013970D01*
X000970Y014089D02*
X000371Y014089D01*
X000371Y014207D02*
X000970Y014207D01*
X000970Y014326D02*
X000371Y014326D01*
X000371Y014445D02*
X001002Y014445D01*
X001122Y014800D02*
X002201Y014800D01*
X002228Y014773D02*
X002438Y014686D01*
X002665Y014686D01*
X002874Y014773D01*
X003034Y014933D01*
X003121Y015142D01*
X003121Y015338D01*
X003188Y015310D01*
X003385Y015310D01*
X003567Y015386D01*
X003706Y015525D01*
X003781Y015707D01*
X003781Y016495D01*
X003706Y016677D01*
X003567Y016816D01*
X003385Y016891D01*
X003188Y016891D01*
X003006Y016816D01*
X002866Y016677D01*
X002791Y016495D01*
X002791Y015773D01*
X002665Y015826D01*
X002438Y015826D01*
X002228Y015739D01*
X002068Y015579D01*
X001981Y015369D01*
X001981Y015142D01*
X002068Y014933D01*
X002228Y014773D01*
X002082Y014919D02*
X001240Y014919D01*
X001298Y015037D02*
X002025Y015037D01*
X001981Y015156D02*
X001341Y015156D01*
X001341Y015274D02*
X001981Y015274D01*
X001991Y015393D02*
X001331Y015393D01*
X001282Y015511D02*
X002040Y015511D01*
X002119Y015630D02*
X001203Y015630D01*
X001587Y015749D02*
X002251Y015749D01*
X001852Y015986D02*
X002791Y015986D01*
X002791Y016104D02*
X001911Y016104D01*
X001960Y016223D02*
X002791Y016223D01*
X002791Y016341D02*
X001996Y016341D01*
X001996Y016460D02*
X002791Y016460D01*
X002826Y016578D02*
X001996Y016578D01*
X001973Y016697D02*
X002887Y016697D01*
X003005Y016815D02*
X001924Y016815D01*
X001875Y016934D02*
X006786Y016934D01*
X006786Y017052D02*
X001765Y017052D01*
X001733Y015867D02*
X002791Y015867D01*
X003121Y015274D02*
X006786Y015274D01*
X006786Y015156D02*
X003121Y015156D01*
X003078Y015037D02*
X006786Y015037D01*
X006786Y014919D02*
X003020Y014919D01*
X002902Y014800D02*
X006786Y014800D01*
X006786Y014682D02*
X000371Y014682D01*
X000371Y014800D02*
X000421Y014800D01*
X000371Y014563D02*
X006786Y014563D01*
X006786Y014445D02*
X005080Y014445D01*
X005111Y014326D02*
X006786Y014326D01*
X006786Y014207D02*
X005111Y014207D01*
X005111Y014089D02*
X006786Y014089D01*
X006786Y013970D02*
X005317Y013970D01*
X005592Y013852D02*
X006786Y013852D01*
X006786Y013733D02*
X005868Y013733D01*
X006143Y013615D02*
X006786Y013615D01*
X006786Y013496D02*
X006418Y013496D01*
X005828Y013141D02*
X003661Y013141D01*
X003661Y013259D02*
X005553Y013259D01*
X005277Y013378D02*
X003661Y013378D01*
X003950Y013496D02*
X004123Y013496D01*
X004081Y013615D02*
X003991Y013615D01*
X003991Y013733D02*
X004081Y013733D01*
X004081Y013852D02*
X003991Y013852D01*
X003991Y013970D02*
X004081Y013970D01*
X004081Y014089D02*
X003991Y014089D01*
X003991Y014207D02*
X004081Y014207D01*
X004081Y014326D02*
X003991Y014326D01*
X003960Y014445D02*
X004112Y014445D01*
X004188Y015310D02*
X004385Y015310D01*
X004567Y015386D01*
X004706Y015525D01*
X004781Y015707D01*
X004781Y016495D01*
X004706Y016677D01*
X004567Y016816D01*
X004385Y016891D01*
X004188Y016891D01*
X004006Y016816D01*
X003866Y016677D01*
X003791Y016495D01*
X003791Y015707D01*
X003866Y015525D01*
X004006Y015386D01*
X004188Y015310D01*
X003998Y015393D02*
X003574Y015393D01*
X003693Y015511D02*
X003880Y015511D01*
X003823Y015630D02*
X003750Y015630D01*
X003781Y015749D02*
X003791Y015749D01*
X003781Y015867D02*
X003791Y015867D01*
X003781Y015986D02*
X003791Y015986D01*
X003781Y016104D02*
X003791Y016104D01*
X003781Y016223D02*
X003791Y016223D01*
X003781Y016341D02*
X003791Y016341D01*
X003781Y016460D02*
X003791Y016460D01*
X003826Y016578D02*
X003747Y016578D01*
X003686Y016697D02*
X003887Y016697D01*
X004005Y016815D02*
X003567Y016815D01*
X004567Y016815D02*
X005005Y016815D01*
X005006Y016816D02*
X004866Y016677D01*
X004791Y016495D01*
X004791Y015707D01*
X004866Y015525D01*
X005006Y015386D01*
X005188Y015310D01*
X005385Y015310D01*
X005567Y015386D01*
X005706Y015525D01*
X005781Y015707D01*
X005781Y016495D01*
X005706Y016677D01*
X005567Y016816D01*
X005385Y016891D01*
X005188Y016891D01*
X005006Y016816D01*
X004887Y016697D02*
X004686Y016697D01*
X004747Y016578D02*
X004826Y016578D01*
X004791Y016460D02*
X004781Y016460D01*
X004781Y016341D02*
X004791Y016341D01*
X004781Y016223D02*
X004791Y016223D01*
X004781Y016104D02*
X004791Y016104D01*
X004781Y015986D02*
X004791Y015986D01*
X004781Y015867D02*
X004791Y015867D01*
X004781Y015749D02*
X004791Y015749D01*
X004823Y015630D02*
X004750Y015630D01*
X004693Y015511D02*
X004880Y015511D01*
X004998Y015393D02*
X004574Y015393D01*
X005574Y015393D02*
X005998Y015393D01*
X006006Y015386D02*
X005866Y015525D01*
X005791Y015707D01*
X005791Y016495D01*
X005866Y016677D01*
X006006Y016816D01*
X006188Y016891D01*
X006385Y016891D01*
X006567Y016816D01*
X006706Y016677D01*
X006781Y016495D01*
X006781Y015707D01*
X006706Y015525D01*
X006567Y015386D01*
X006385Y015310D01*
X006188Y015310D01*
X006006Y015386D01*
X005880Y015511D02*
X005693Y015511D01*
X005750Y015630D02*
X005823Y015630D01*
X005791Y015749D02*
X005781Y015749D01*
X005781Y015867D02*
X005791Y015867D01*
X005781Y015986D02*
X005791Y015986D01*
X005781Y016104D02*
X005791Y016104D01*
X005781Y016223D02*
X005791Y016223D01*
X005781Y016341D02*
X005791Y016341D01*
X005781Y016460D02*
X005791Y016460D01*
X005826Y016578D02*
X005747Y016578D01*
X005686Y016697D02*
X005887Y016697D01*
X006005Y016815D02*
X005567Y016815D01*
X006567Y016815D02*
X006786Y016815D01*
X006786Y016697D02*
X006686Y016697D01*
X006747Y016578D02*
X006786Y016578D01*
X006781Y016460D02*
X006786Y016460D01*
X006781Y016341D02*
X006786Y016341D01*
X006781Y016223D02*
X006786Y016223D01*
X006781Y016104D02*
X006786Y016104D01*
X006781Y015986D02*
X006786Y015986D01*
X006781Y015867D02*
X006786Y015867D01*
X006781Y015749D02*
X006786Y015749D01*
X006786Y015630D02*
X006750Y015630D01*
X006786Y015511D02*
X006693Y015511D01*
X006786Y015393D02*
X006574Y015393D01*
X003161Y013378D02*
X002036Y013378D01*
X002036Y013496D02*
X002115Y013496D01*
X002072Y013615D02*
X002036Y013615D01*
X002036Y013733D02*
X002072Y013733D01*
X002072Y013852D02*
X002036Y013852D01*
X002036Y013970D02*
X002072Y013970D01*
X002072Y014089D02*
X002010Y014089D01*
X002000Y014207D02*
X002072Y014207D01*
X002072Y014326D02*
X002000Y014326D01*
X001968Y014445D02*
X002104Y014445D01*
X002036Y013259D02*
X002422Y013259D01*
X002681Y013259D02*
X003161Y013259D01*
X003161Y013141D02*
X002913Y013141D01*
X003031Y013022D02*
X003161Y013022D01*
X003161Y012903D02*
X003082Y012903D01*
X003121Y012785D02*
X003161Y012785D01*
X003161Y012666D02*
X003121Y012666D01*
X003107Y012548D02*
X003161Y012548D01*
X003161Y012429D02*
X003058Y012429D01*
X002972Y012311D02*
X003161Y012311D01*
X003161Y012192D02*
X002825Y012192D01*
X002071Y013022D02*
X002036Y013022D01*
X002036Y013141D02*
X002190Y013141D01*
X003564Y010128D02*
X005096Y010128D01*
X005546Y010058D02*
X005600Y010058D01*
X005546Y009940D02*
X005691Y009940D01*
X005727Y009821D02*
X005546Y009821D01*
X005546Y009703D02*
X005821Y009703D01*
X003564Y010128D02*
X003536Y010101D01*
X001826Y007561D02*
X001826Y007131D01*
X001826Y007101D01*
X001746Y007101D01*
X001746Y007131D01*
X001746Y007561D01*
X001826Y007561D01*
X001826Y007450D02*
X001746Y007450D01*
X001746Y007332D02*
X001826Y007332D01*
X001826Y007213D02*
X001746Y007213D01*
X010411Y004226D02*
X010411Y003460D01*
X013911Y003351D02*
X014536Y003351D01*
X014536Y003352D01*
D41*
X014411Y005893D02*
X015724Y005913D01*
X014786Y007976D02*
X014786Y008675D01*
X018572Y010227D02*
X019411Y010316D01*
X019411Y010351D02*
X020161Y010351D01*
X020161Y004726D02*
X019452Y004726D01*
X007911Y003460D02*
X007911Y002601D01*
X001786Y006601D02*
X001786Y007101D01*
X001786Y007601D01*
D42*
X007911Y003460D02*
X009156Y003460D01*
X020161Y007851D02*
X020161Y010351D01*
D43*
X011286Y004476D03*
D44*
X011536Y004351D01*
X013036Y004351D01*
X013286Y004100D01*
X013286Y002101D01*
X013286Y004100D02*
X014536Y004100D01*
M02*
