G75*
G70*
%OFA0B0*%
%FSLAX24Y24*%
%IPPOS*%
%LPD*%
%AMOC8*
5,1,8,0,0,1.08239X$1,22.5*
%
%ADD10C,0.0000*%
D10*
X000161Y000101D02*
X000161Y017351D01*
X020536Y017351D01*
X020536Y000101D01*
X000161Y000101D01*
X000536Y001101D02*
X000538Y001151D01*
X000544Y001200D01*
X000554Y001249D01*
X000567Y001296D01*
X000585Y001343D01*
X000606Y001388D01*
X000630Y001431D01*
X000658Y001472D01*
X000689Y001511D01*
X000723Y001547D01*
X000760Y001581D01*
X000800Y001611D01*
X000841Y001638D01*
X000885Y001662D01*
X000930Y001682D01*
X000977Y001698D01*
X001025Y001711D01*
X001074Y001720D01*
X001124Y001725D01*
X001173Y001726D01*
X001223Y001723D01*
X001272Y001716D01*
X001321Y001705D01*
X001368Y001691D01*
X001414Y001672D01*
X001459Y001650D01*
X001502Y001625D01*
X001542Y001596D01*
X001580Y001564D01*
X001616Y001530D01*
X001649Y001492D01*
X001678Y001452D01*
X001704Y001410D01*
X001727Y001366D01*
X001746Y001320D01*
X001762Y001273D01*
X001774Y001224D01*
X001782Y001175D01*
X001786Y001126D01*
X001786Y001076D01*
X001782Y001027D01*
X001774Y000978D01*
X001762Y000929D01*
X001746Y000882D01*
X001727Y000836D01*
X001704Y000792D01*
X001678Y000750D01*
X001649Y000710D01*
X001616Y000672D01*
X001580Y000638D01*
X001542Y000606D01*
X001502Y000577D01*
X001459Y000552D01*
X001414Y000530D01*
X001368Y000511D01*
X001321Y000497D01*
X001272Y000486D01*
X001223Y000479D01*
X001173Y000476D01*
X001124Y000477D01*
X001074Y000482D01*
X001025Y000491D01*
X000977Y000504D01*
X000930Y000520D01*
X000885Y000540D01*
X000841Y000564D01*
X000800Y000591D01*
X000760Y000621D01*
X000723Y000655D01*
X000689Y000691D01*
X000658Y000730D01*
X000630Y000771D01*
X000606Y000814D01*
X000585Y000859D01*
X000567Y000906D01*
X000554Y000953D01*
X000544Y001002D01*
X000538Y001051D01*
X000536Y001101D01*
X008743Y002476D02*
X008745Y002502D01*
X008751Y002528D01*
X008761Y002553D01*
X008774Y002576D01*
X008790Y002596D01*
X008810Y002614D01*
X008832Y002629D01*
X008855Y002641D01*
X008881Y002649D01*
X008907Y002653D01*
X008933Y002653D01*
X008959Y002649D01*
X008985Y002641D01*
X009009Y002629D01*
X009030Y002614D01*
X009050Y002596D01*
X009066Y002576D01*
X009079Y002553D01*
X009089Y002528D01*
X009095Y002502D01*
X009097Y002476D01*
X009095Y002450D01*
X009089Y002424D01*
X009079Y002399D01*
X009066Y002376D01*
X009050Y002356D01*
X009030Y002338D01*
X009008Y002323D01*
X008985Y002311D01*
X008959Y002303D01*
X008933Y002299D01*
X008907Y002299D01*
X008881Y002303D01*
X008855Y002311D01*
X008831Y002323D01*
X008810Y002338D01*
X008790Y002356D01*
X008774Y002376D01*
X008761Y002399D01*
X008751Y002424D01*
X008745Y002450D01*
X008743Y002476D01*
X010475Y002476D02*
X010477Y002502D01*
X010483Y002528D01*
X010493Y002553D01*
X010506Y002576D01*
X010522Y002596D01*
X010542Y002614D01*
X010564Y002629D01*
X010587Y002641D01*
X010613Y002649D01*
X010639Y002653D01*
X010665Y002653D01*
X010691Y002649D01*
X010717Y002641D01*
X010741Y002629D01*
X010762Y002614D01*
X010782Y002596D01*
X010798Y002576D01*
X010811Y002553D01*
X010821Y002528D01*
X010827Y002502D01*
X010829Y002476D01*
X010827Y002450D01*
X010821Y002424D01*
X010811Y002399D01*
X010798Y002376D01*
X010782Y002356D01*
X010762Y002338D01*
X010740Y002323D01*
X010717Y002311D01*
X010691Y002303D01*
X010665Y002299D01*
X010639Y002299D01*
X010613Y002303D01*
X010587Y002311D01*
X010563Y002323D01*
X010542Y002338D01*
X010522Y002356D01*
X010506Y002376D01*
X010493Y002399D01*
X010483Y002424D01*
X010477Y002450D01*
X010475Y002476D01*
X018536Y001101D02*
X018538Y001151D01*
X018544Y001200D01*
X018554Y001249D01*
X018567Y001296D01*
X018585Y001343D01*
X018606Y001388D01*
X018630Y001431D01*
X018658Y001472D01*
X018689Y001511D01*
X018723Y001547D01*
X018760Y001581D01*
X018800Y001611D01*
X018841Y001638D01*
X018885Y001662D01*
X018930Y001682D01*
X018977Y001698D01*
X019025Y001711D01*
X019074Y001720D01*
X019124Y001725D01*
X019173Y001726D01*
X019223Y001723D01*
X019272Y001716D01*
X019321Y001705D01*
X019368Y001691D01*
X019414Y001672D01*
X019459Y001650D01*
X019502Y001625D01*
X019542Y001596D01*
X019580Y001564D01*
X019616Y001530D01*
X019649Y001492D01*
X019678Y001452D01*
X019704Y001410D01*
X019727Y001366D01*
X019746Y001320D01*
X019762Y001273D01*
X019774Y001224D01*
X019782Y001175D01*
X019786Y001126D01*
X019786Y001076D01*
X019782Y001027D01*
X019774Y000978D01*
X019762Y000929D01*
X019746Y000882D01*
X019727Y000836D01*
X019704Y000792D01*
X019678Y000750D01*
X019649Y000710D01*
X019616Y000672D01*
X019580Y000638D01*
X019542Y000606D01*
X019502Y000577D01*
X019459Y000552D01*
X019414Y000530D01*
X019368Y000511D01*
X019321Y000497D01*
X019272Y000486D01*
X019223Y000479D01*
X019173Y000476D01*
X019124Y000477D01*
X019074Y000482D01*
X019025Y000491D01*
X018977Y000504D01*
X018930Y000520D01*
X018885Y000540D01*
X018841Y000564D01*
X018800Y000591D01*
X018760Y000621D01*
X018723Y000655D01*
X018689Y000691D01*
X018658Y000730D01*
X018630Y000771D01*
X018606Y000814D01*
X018585Y000859D01*
X018567Y000906D01*
X018554Y000953D01*
X018544Y001002D01*
X018538Y001051D01*
X018536Y001101D01*
X000536Y016476D02*
X000538Y016526D01*
X000544Y016575D01*
X000554Y016624D01*
X000567Y016671D01*
X000585Y016718D01*
X000606Y016763D01*
X000630Y016806D01*
X000658Y016847D01*
X000689Y016886D01*
X000723Y016922D01*
X000760Y016956D01*
X000800Y016986D01*
X000841Y017013D01*
X000885Y017037D01*
X000930Y017057D01*
X000977Y017073D01*
X001025Y017086D01*
X001074Y017095D01*
X001124Y017100D01*
X001173Y017101D01*
X001223Y017098D01*
X001272Y017091D01*
X001321Y017080D01*
X001368Y017066D01*
X001414Y017047D01*
X001459Y017025D01*
X001502Y017000D01*
X001542Y016971D01*
X001580Y016939D01*
X001616Y016905D01*
X001649Y016867D01*
X001678Y016827D01*
X001704Y016785D01*
X001727Y016741D01*
X001746Y016695D01*
X001762Y016648D01*
X001774Y016599D01*
X001782Y016550D01*
X001786Y016501D01*
X001786Y016451D01*
X001782Y016402D01*
X001774Y016353D01*
X001762Y016304D01*
X001746Y016257D01*
X001727Y016211D01*
X001704Y016167D01*
X001678Y016125D01*
X001649Y016085D01*
X001616Y016047D01*
X001580Y016013D01*
X001542Y015981D01*
X001502Y015952D01*
X001459Y015927D01*
X001414Y015905D01*
X001368Y015886D01*
X001321Y015872D01*
X001272Y015861D01*
X001223Y015854D01*
X001173Y015851D01*
X001124Y015852D01*
X001074Y015857D01*
X001025Y015866D01*
X000977Y015879D01*
X000930Y015895D01*
X000885Y015915D01*
X000841Y015939D01*
X000800Y015966D01*
X000760Y015996D01*
X000723Y016030D01*
X000689Y016066D01*
X000658Y016105D01*
X000630Y016146D01*
X000606Y016189D01*
X000585Y016234D01*
X000567Y016281D01*
X000554Y016328D01*
X000544Y016377D01*
X000538Y016426D01*
X000536Y016476D01*
M02*
