G75*
G70*
%OFA0B0*%
%FSLAX24Y24*%
%IPPOS*%
%LPD*%
%AMOC8*
5,1,8,0,0,1.08239X$1,22.5*
%
%ADD10C,0.1330*%
%ADD11R,0.0300X0.0580*%
%ADD12R,0.0580X0.0300*%
%ADD13C,0.0820*%
%ADD14OC8,0.0680*%
%ADD15C,0.0820*%
%ADD16R,0.0710X0.0790*%
%ADD17R,0.1175X0.1175*%
%ADD18R,0.0710X0.0789*%
%ADD19C,0.0671*%
%ADD20C,0.0680*%
%ADD21R,0.0580X0.0330*%
%ADD22R,0.0671X0.0592*%
%ADD23R,0.0277X0.1064*%
%ADD24R,0.0867X0.1064*%
%ADD25C,0.0434*%
%ADD26R,0.0789X0.0474*%
%ADD27R,0.0769X0.0356*%
%ADD28R,0.0671X0.0671*%
%ADD29R,0.0690X0.0474*%
%ADD30R,0.0474X0.0661*%
%ADD31R,0.0671X0.0395*%
%ADD32R,0.0631X0.0395*%
%ADD33R,0.0552X0.0297*%
%ADD34R,0.0671X0.0867*%
%ADD35R,0.0867X0.0671*%
%ADD36R,0.0340X0.0880*%
%ADD37R,0.0631X0.0552*%
%ADD38R,0.0592X0.0671*%
%ADD39C,0.0370*%
%ADD40C,0.0417*%
D10*
X001161Y001101D03*
X019161Y001101D03*
X001161Y016476D03*
D11*
X005684Y012291D03*
X005999Y012291D03*
X006314Y012291D03*
X006629Y012291D03*
X006944Y012291D03*
X007259Y012291D03*
X007574Y012291D03*
X007889Y012291D03*
X007889Y008911D03*
X007574Y008911D03*
X007259Y008911D03*
X006944Y008911D03*
X006629Y008911D03*
X006314Y008911D03*
X005999Y008911D03*
X005684Y008911D03*
D12*
X005096Y009498D03*
X005096Y009813D03*
X005096Y010128D03*
X005096Y010443D03*
X005096Y010758D03*
X005096Y011073D03*
X005096Y011388D03*
X005096Y011703D03*
X008476Y011703D03*
X008476Y011388D03*
X008476Y011073D03*
X008476Y010758D03*
X008476Y010443D03*
X008476Y010128D03*
X008476Y009813D03*
X008476Y009498D03*
D13*
X002551Y012696D03*
X000771Y012696D03*
X000771Y015256D03*
X002551Y015256D03*
X002551Y005256D03*
X000771Y005256D03*
X000771Y002696D03*
X002551Y002696D03*
D14*
X004286Y006101D03*
X005286Y006101D03*
X006286Y006101D03*
X006286Y007101D03*
X005286Y007101D03*
X004286Y007101D03*
D15*
X002156Y007601D02*
X001416Y007601D01*
X001416Y008601D02*
X002156Y008601D01*
X002156Y009601D02*
X001416Y009601D01*
X001416Y010601D02*
X002156Y010601D01*
X002156Y011601D02*
X001416Y011601D01*
X001416Y006601D02*
X002156Y006601D01*
D16*
X003476Y013976D03*
X004596Y013976D03*
D17*
X013286Y012101D03*
X013286Y002101D03*
D18*
X002587Y013976D03*
X001485Y013976D03*
D19*
X003286Y015806D02*
X003286Y016396D01*
X004286Y016396D02*
X004286Y015806D01*
X005286Y015806D02*
X005286Y016396D01*
X006286Y016396D02*
X006286Y015806D01*
X007286Y015806D02*
X007286Y016396D01*
X008286Y016396D02*
X008286Y015806D01*
X009286Y015806D02*
X009286Y016396D01*
X010286Y016396D02*
X010286Y015806D01*
X011286Y015806D02*
X011286Y016396D01*
X012286Y016396D02*
X012286Y015806D01*
X013286Y015806D02*
X013286Y016396D01*
X014286Y016396D02*
X014286Y015806D01*
X015286Y015806D02*
X015286Y016396D01*
X016286Y016396D02*
X016286Y015806D01*
X016286Y001396D02*
X016286Y000806D01*
X015286Y000806D02*
X015286Y001396D01*
X004286Y001396D02*
X004286Y000806D01*
X003286Y000806D02*
X003286Y001396D01*
D20*
X018036Y014051D02*
X018036Y014651D01*
X018036Y015426D02*
X018036Y016026D01*
X019036Y016026D02*
X019036Y015426D01*
X020036Y015426D02*
X020036Y016026D01*
X020036Y014651D02*
X020036Y014051D01*
X019036Y014051D02*
X019036Y014651D01*
D21*
X012286Y010600D03*
X012286Y010226D03*
X012286Y009852D03*
X011286Y009852D03*
X011286Y010600D03*
D22*
X010536Y010600D03*
X009786Y010600D03*
X009786Y009852D03*
X010536Y009852D03*
X013036Y009852D03*
X013036Y010600D03*
X007911Y013477D03*
X007911Y014225D03*
X019404Y006931D03*
X014536Y004100D03*
X014536Y003352D03*
D23*
X010416Y003460D03*
X010101Y003460D03*
X009786Y003460D03*
X009471Y003460D03*
X009156Y003460D03*
D24*
X008015Y003460D03*
X008015Y001295D03*
X011558Y001295D03*
X011558Y003460D03*
D25*
X010652Y002476D03*
X008920Y002476D03*
D26*
X014786Y008675D03*
X014786Y009777D03*
D27*
X019452Y006458D03*
X019452Y006025D03*
X019452Y005592D03*
X019452Y005159D03*
X019452Y004726D03*
X019452Y004293D03*
X019452Y003860D03*
X019452Y003427D03*
D28*
X019402Y002462D03*
D29*
X015200Y002531D03*
D30*
X015820Y006945D03*
D31*
X016410Y007078D03*
D32*
X016154Y002373D03*
D33*
X017524Y010227D03*
X017524Y010601D03*
X017524Y010975D03*
X018548Y010975D03*
X018548Y010227D03*
D34*
X018502Y009351D03*
X017321Y009351D03*
D35*
X019411Y009135D03*
X019411Y010316D03*
X014536Y006941D03*
X014536Y005760D03*
D36*
X013786Y005891D03*
X013286Y005891D03*
X012786Y005891D03*
X012286Y005891D03*
X011786Y005891D03*
X011286Y005891D03*
X010786Y005891D03*
X010286Y005891D03*
X010286Y008311D03*
X010786Y008311D03*
X011286Y008311D03*
X011786Y008311D03*
X012286Y008311D03*
X012786Y008311D03*
X013286Y008311D03*
X013786Y008311D03*
D37*
X009594Y013536D03*
X009594Y014166D03*
X008728Y014166D03*
X008728Y013536D03*
D38*
X008787Y012726D03*
X009535Y012726D03*
D39*
X007286Y013101D03*
X006944Y011601D03*
X006036Y009976D03*
X006286Y008226D03*
X007286Y008351D03*
X007474Y007913D03*
X007849Y008226D03*
X008286Y008476D03*
X009661Y008351D03*
X010161Y009351D03*
X009099Y010538D03*
X011786Y010663D03*
X011786Y009663D03*
X012786Y008976D03*
X013786Y010226D03*
X014786Y007976D03*
X015661Y005851D03*
X013911Y003351D03*
X009661Y005976D03*
X009036Y006226D03*
X008536Y006726D03*
X006786Y005101D03*
X004411Y004601D03*
X003471Y007061D03*
X002724Y007413D03*
X003661Y008101D03*
X003536Y010101D03*
X004161Y011851D03*
X004536Y012101D03*
X004911Y012351D03*
X010786Y015101D03*
X020161Y007851D03*
X020161Y004726D03*
X007911Y002601D03*
D40*
X011286Y004476D03*
M02*
