G75*
G70*
%OFA0B0*%
%FSLAX24Y24*%
%IPPOS*%
%LPD*%
%AMOC8*
5,1,8,0,0,1.08239X$1,22.5*
%
%ADD10C,0.0820*%
%ADD11OC8,0.0680*%
%ADD12C,0.0820*%
%ADD13R,0.1680X0.1680*%
%ADD14R,0.1175X0.1175*%
%ADD15R,0.0710X0.0789*%
%ADD16C,0.0671*%
%ADD17R,0.0789X0.0710*%
%ADD18R,0.0580X0.0297*%
%ADD19R,0.0592X0.0671*%
%ADD20C,0.0680*%
%ADD21R,0.0631X0.0552*%
%ADD22C,0.0434*%
%ADD23C,0.0370*%
%ADD24C,0.0417*%
D10*
X000771Y002321D03*
X002551Y002321D03*
X002551Y004881D03*
X000771Y004881D03*
X000771Y012696D03*
X002551Y012696D03*
X002551Y015256D03*
X000771Y015256D03*
D11*
X004286Y007101D03*
X005286Y007101D03*
X006286Y007101D03*
X006286Y006101D03*
X005286Y006101D03*
X004286Y006101D03*
D12*
X002156Y006601D02*
X001416Y006601D01*
X001416Y007601D02*
X002156Y007601D01*
X002156Y008601D02*
X001416Y008601D01*
X001416Y009601D02*
X002156Y009601D01*
X002156Y010601D02*
X001416Y010601D01*
X001416Y011601D02*
X002156Y011601D01*
D13*
X013286Y007101D03*
D14*
X013286Y012101D03*
X013286Y002101D03*
D15*
X006087Y004601D03*
X004985Y004601D03*
X006235Y010851D03*
X007337Y010851D03*
X013235Y014101D03*
X013110Y014976D03*
X014212Y014976D03*
X014337Y014101D03*
D16*
X014286Y015806D02*
X014286Y016396D01*
X015286Y016396D02*
X015286Y015806D01*
X016286Y015806D02*
X016286Y016396D01*
X013286Y016396D02*
X013286Y015806D01*
X012286Y015806D02*
X012286Y016396D01*
X011286Y016396D02*
X011286Y015806D01*
X010286Y015806D02*
X010286Y016396D01*
X009286Y016396D02*
X009286Y015806D01*
X008286Y015806D02*
X008286Y016396D01*
X007286Y016396D02*
X007286Y015806D01*
X006286Y015806D02*
X006286Y016396D01*
X005286Y016396D02*
X005286Y015806D01*
X004286Y015806D02*
X004286Y016396D01*
X003286Y016396D02*
X003286Y015806D01*
X003286Y001396D02*
X003286Y000806D01*
X004286Y000806D02*
X004286Y001396D01*
X015286Y001396D02*
X015286Y000806D01*
X016286Y000806D02*
X016286Y001396D01*
D17*
X007036Y002550D03*
X007036Y003652D03*
X016286Y013925D03*
X016286Y015027D03*
D18*
X006068Y003725D03*
X006068Y003351D03*
X006068Y002977D03*
X005005Y002977D03*
X005005Y003725D03*
D19*
X005162Y002101D03*
X005910Y002101D03*
D20*
X018036Y014051D02*
X018036Y014651D01*
X018036Y015426D02*
X018036Y016026D01*
X019036Y016026D02*
X019036Y015426D01*
X020036Y015426D02*
X020036Y016026D01*
X020036Y014651D02*
X020036Y014051D01*
X019036Y014051D02*
X019036Y014651D01*
D21*
X007411Y006316D03*
X007411Y005135D03*
D22*
X008920Y002476D03*
X010652Y002476D03*
D23*
X007911Y002601D03*
X006786Y005101D03*
X008536Y006726D03*
X009036Y006226D03*
X009661Y005976D03*
X007474Y007913D03*
X007849Y008226D03*
X007286Y008351D03*
X006286Y008226D03*
X006036Y009976D03*
X006944Y011601D03*
X007286Y013101D03*
X004911Y012351D03*
X004536Y012101D03*
X004161Y011851D03*
X003536Y010101D03*
X003661Y008101D03*
X002724Y007413D03*
X003471Y007061D03*
X004411Y004601D03*
X008286Y008476D03*
X009661Y008351D03*
X010161Y009351D03*
X009099Y010538D03*
X011786Y010663D03*
X011786Y009663D03*
X012786Y008976D03*
X013786Y010226D03*
X014786Y007976D03*
X015661Y005851D03*
X013911Y003351D03*
X020161Y004726D03*
X020161Y007851D03*
X010786Y015101D03*
D24*
X011286Y004476D03*
M02*
