G75*
G70*
%OFA0B0*%
%FSLAX24Y24*%
%IPPOS*%
%LPD*%
%AMOC8*
5,1,8,0,0,1.08239X$1,22.5*
%
%ADD10C,0.0000*%
D10*
X000161Y000101D02*
X000161Y017101D01*
X020536Y017101D01*
X020536Y000101D01*
X000161Y000101D01*
X008743Y002476D02*
X008745Y002502D01*
X008751Y002528D01*
X008761Y002553D01*
X008774Y002576D01*
X008790Y002596D01*
X008810Y002614D01*
X008832Y002629D01*
X008855Y002641D01*
X008881Y002649D01*
X008907Y002653D01*
X008933Y002653D01*
X008959Y002649D01*
X008985Y002641D01*
X009009Y002629D01*
X009030Y002614D01*
X009050Y002596D01*
X009066Y002576D01*
X009079Y002553D01*
X009089Y002528D01*
X009095Y002502D01*
X009097Y002476D01*
X009095Y002450D01*
X009089Y002424D01*
X009079Y002399D01*
X009066Y002376D01*
X009050Y002356D01*
X009030Y002338D01*
X009008Y002323D01*
X008985Y002311D01*
X008959Y002303D01*
X008933Y002299D01*
X008907Y002299D01*
X008881Y002303D01*
X008855Y002311D01*
X008831Y002323D01*
X008810Y002338D01*
X008790Y002356D01*
X008774Y002376D01*
X008761Y002399D01*
X008751Y002424D01*
X008745Y002450D01*
X008743Y002476D01*
X010475Y002476D02*
X010477Y002502D01*
X010483Y002528D01*
X010493Y002553D01*
X010506Y002576D01*
X010522Y002596D01*
X010542Y002614D01*
X010564Y002629D01*
X010587Y002641D01*
X010613Y002649D01*
X010639Y002653D01*
X010665Y002653D01*
X010691Y002649D01*
X010717Y002641D01*
X010741Y002629D01*
X010762Y002614D01*
X010782Y002596D01*
X010798Y002576D01*
X010811Y002553D01*
X010821Y002528D01*
X010827Y002502D01*
X010829Y002476D01*
X010827Y002450D01*
X010821Y002424D01*
X010811Y002399D01*
X010798Y002376D01*
X010782Y002356D01*
X010762Y002338D01*
X010740Y002323D01*
X010717Y002311D01*
X010691Y002303D01*
X010665Y002299D01*
X010639Y002299D01*
X010613Y002303D01*
X010587Y002311D01*
X010563Y002323D01*
X010542Y002338D01*
X010522Y002356D01*
X010506Y002376D01*
X010493Y002399D01*
X010483Y002424D01*
X010477Y002450D01*
X010475Y002476D01*
M02*
