G75*
G70*
%OFA0B0*%
%FSLAX24Y24*%
%IPPOS*%
%LPD*%
%AMOC8*
5,1,8,0,0,1.08239X$1,22.5*
%
%ADD10C,0.0000*%
%ADD11C,0.0060*%
%ADD12C,0.0010*%
%ADD13C,0.0040*%
%ADD14C,0.0050*%
%ADD15C,0.0080*%
%ADD16C,0.0030*%
%ADD17C,0.0020*%
D10*
X000161Y000101D02*
X000161Y017101D01*
X020536Y017101D01*
X020536Y000101D01*
X000161Y000101D01*
X008743Y002476D02*
X008745Y002502D01*
X008751Y002528D01*
X008761Y002553D01*
X008774Y002576D01*
X008790Y002596D01*
X008810Y002614D01*
X008832Y002629D01*
X008855Y002641D01*
X008881Y002649D01*
X008907Y002653D01*
X008933Y002653D01*
X008959Y002649D01*
X008985Y002641D01*
X009009Y002629D01*
X009030Y002614D01*
X009050Y002596D01*
X009066Y002576D01*
X009079Y002553D01*
X009089Y002528D01*
X009095Y002502D01*
X009097Y002476D01*
X009095Y002450D01*
X009089Y002424D01*
X009079Y002399D01*
X009066Y002376D01*
X009050Y002356D01*
X009030Y002338D01*
X009008Y002323D01*
X008985Y002311D01*
X008959Y002303D01*
X008933Y002299D01*
X008907Y002299D01*
X008881Y002303D01*
X008855Y002311D01*
X008831Y002323D01*
X008810Y002338D01*
X008790Y002356D01*
X008774Y002376D01*
X008761Y002399D01*
X008751Y002424D01*
X008745Y002450D01*
X008743Y002476D01*
X010475Y002476D02*
X010477Y002502D01*
X010483Y002528D01*
X010493Y002553D01*
X010506Y002576D01*
X010522Y002596D01*
X010542Y002614D01*
X010564Y002629D01*
X010587Y002641D01*
X010613Y002649D01*
X010639Y002653D01*
X010665Y002653D01*
X010691Y002649D01*
X010717Y002641D01*
X010741Y002629D01*
X010762Y002614D01*
X010782Y002596D01*
X010798Y002576D01*
X010811Y002553D01*
X010821Y002528D01*
X010827Y002502D01*
X010829Y002476D01*
X010827Y002450D01*
X010821Y002424D01*
X010811Y002399D01*
X010798Y002376D01*
X010782Y002356D01*
X010762Y002338D01*
X010740Y002323D01*
X010717Y002311D01*
X010691Y002303D01*
X010665Y002299D01*
X010639Y002299D01*
X010613Y002303D01*
X010587Y002311D01*
X010563Y002323D01*
X010542Y002338D01*
X010522Y002356D01*
X010506Y002376D01*
X010493Y002399D01*
X010483Y002424D01*
X010477Y002450D01*
X010475Y002476D01*
D11*
X006786Y005851D02*
X006786Y007351D01*
X006536Y007601D01*
X006036Y007601D01*
X005786Y007351D01*
X005786Y005851D01*
X005536Y005601D01*
X005036Y005601D01*
X004786Y005851D01*
X004536Y005601D01*
X004036Y005601D01*
X003786Y005851D01*
X003786Y007351D01*
X004036Y007601D01*
X004536Y007601D01*
X004786Y007351D01*
X004786Y005851D01*
X005786Y005851D02*
X006036Y005601D01*
X006536Y005601D01*
X006786Y005851D01*
X005786Y007351D02*
X005536Y007601D01*
X005036Y007601D01*
X004786Y007351D01*
X005406Y009221D02*
X005406Y011841D01*
X005546Y011981D01*
X008166Y011981D01*
X008166Y009221D01*
X005406Y009221D01*
X005565Y011681D02*
X005567Y011704D01*
X005573Y011727D01*
X005582Y011748D01*
X005595Y011768D01*
X005611Y011785D01*
X005629Y011799D01*
X005649Y011810D01*
X005671Y011818D01*
X005694Y011822D01*
X005718Y011822D01*
X005741Y011818D01*
X005763Y011810D01*
X005783Y011799D01*
X005801Y011785D01*
X005817Y011768D01*
X005830Y011748D01*
X005839Y011727D01*
X005845Y011704D01*
X005847Y011681D01*
X005845Y011658D01*
X005839Y011635D01*
X005830Y011614D01*
X005817Y011594D01*
X005801Y011577D01*
X005783Y011563D01*
X005763Y011552D01*
X005741Y011544D01*
X005718Y011540D01*
X005694Y011540D01*
X005671Y011544D01*
X005649Y011552D01*
X005629Y011563D01*
X005611Y011577D01*
X005595Y011594D01*
X005582Y011614D01*
X005573Y011635D01*
X005567Y011658D01*
X005565Y011681D01*
X010036Y007721D02*
X010036Y006481D01*
X010038Y006458D01*
X010043Y006435D01*
X010052Y006413D01*
X010065Y006393D01*
X010080Y006375D01*
X010098Y006360D01*
X010118Y006347D01*
X010140Y006338D01*
X010163Y006333D01*
X010186Y006331D01*
X013886Y006331D01*
X013909Y006333D01*
X013932Y006338D01*
X013954Y006347D01*
X013974Y006360D01*
X013992Y006375D01*
X014007Y006393D01*
X014020Y006413D01*
X014029Y006435D01*
X014034Y006458D01*
X014036Y006481D01*
X014036Y006901D01*
X014036Y007301D01*
X014036Y007721D01*
X014034Y007744D01*
X014029Y007767D01*
X014020Y007789D01*
X014007Y007809D01*
X013992Y007827D01*
X013974Y007842D01*
X013954Y007855D01*
X013932Y007864D01*
X013909Y007869D01*
X013886Y007871D01*
X010186Y007871D01*
X010163Y007869D01*
X010140Y007864D01*
X010118Y007855D01*
X010098Y007842D01*
X010080Y007827D01*
X010065Y007809D01*
X010052Y007789D01*
X010043Y007767D01*
X010038Y007744D01*
X010036Y007721D01*
X011301Y009081D02*
X011301Y009421D01*
X011074Y009421D01*
X011188Y009251D02*
X011301Y009251D01*
X011443Y009421D02*
X011670Y009421D01*
X011670Y009081D01*
X011443Y009081D01*
X011556Y009251D02*
X011670Y009251D01*
X011811Y009251D02*
X011811Y009364D01*
X011868Y009421D01*
X012038Y009421D01*
X012038Y009081D01*
X012038Y009194D02*
X011868Y009194D01*
X011811Y009251D01*
X011925Y009194D02*
X011811Y009081D01*
X012179Y009194D02*
X012179Y009421D01*
X012179Y009194D02*
X012293Y009081D01*
X012406Y009194D01*
X012406Y009421D01*
X014036Y007301D02*
X014009Y007299D01*
X013982Y007294D01*
X013956Y007284D01*
X013932Y007272D01*
X013910Y007256D01*
X013890Y007238D01*
X013873Y007216D01*
X013858Y007193D01*
X013848Y007168D01*
X013840Y007142D01*
X013836Y007115D01*
X013836Y007087D01*
X013840Y007060D01*
X013848Y007034D01*
X013858Y007009D01*
X013873Y006986D01*
X013890Y006964D01*
X013910Y006946D01*
X013932Y006930D01*
X013956Y006918D01*
X013982Y006908D01*
X014009Y006903D01*
X014036Y006901D01*
X015416Y008994D02*
X015757Y008994D01*
X015757Y009221D01*
X015643Y009362D02*
X015757Y009476D01*
X015416Y009476D01*
X015416Y009589D02*
X015416Y009362D01*
X015586Y009108D02*
X015586Y008994D01*
X017717Y010041D02*
X017717Y010078D01*
X017717Y010041D02*
X018355Y010041D01*
X018355Y010078D01*
X018355Y010395D02*
X018355Y010806D01*
X018355Y011124D02*
X018355Y011161D01*
X017717Y011161D01*
X017717Y011124D01*
X017717Y010806D02*
X017717Y010769D01*
X017717Y010432D02*
X017717Y010395D01*
D12*
X010291Y001228D02*
X010291Y001128D01*
X010291Y001081D02*
X010441Y000981D01*
X010441Y001081D02*
X010291Y000981D01*
X010391Y001128D02*
X010441Y001178D01*
X010291Y001178D01*
X005051Y008821D02*
X005001Y008821D01*
X004976Y008846D01*
X004976Y008971D01*
X004929Y008921D02*
X004879Y008971D01*
X004879Y008821D01*
X004929Y008821D02*
X004829Y008821D01*
X005051Y008821D02*
X005076Y008846D01*
X005076Y008971D01*
D13*
X008914Y011822D02*
X008990Y011746D01*
X009144Y011746D01*
X009221Y011822D01*
X009374Y011746D02*
X009681Y011746D01*
X009527Y011746D02*
X009527Y012206D01*
X009681Y012053D01*
X009834Y012129D02*
X009911Y012206D01*
X010065Y012206D01*
X010141Y012129D01*
X010141Y011822D01*
X010065Y011746D01*
X009911Y011746D01*
X009834Y011822D01*
X009891Y011456D02*
X009661Y011456D01*
X009584Y011379D01*
X009584Y011226D01*
X009661Y011149D01*
X009891Y011149D01*
X009738Y011149D02*
X009584Y010996D01*
X009431Y011072D02*
X009354Y010996D01*
X009201Y010996D01*
X009124Y011072D01*
X009124Y011149D01*
X009201Y011226D01*
X009431Y011226D01*
X009431Y011072D01*
X009431Y011226D02*
X009277Y011379D01*
X009124Y011456D01*
X008914Y011822D02*
X008914Y011899D01*
X008990Y011976D01*
X009067Y011976D01*
X008990Y011976D02*
X008914Y012053D01*
X008914Y012129D01*
X008990Y012206D01*
X009144Y012206D01*
X009221Y012129D01*
X009891Y011456D02*
X009891Y010996D01*
X010499Y011072D02*
X010576Y010996D01*
X010729Y010996D01*
X010806Y011072D01*
X010806Y011226D02*
X010652Y011303D01*
X010576Y011303D01*
X010499Y011226D01*
X010499Y011072D01*
X010806Y011226D02*
X010806Y011456D01*
X010499Y011456D01*
X010959Y011379D02*
X010959Y011226D01*
X011036Y011149D01*
X011266Y011149D01*
X011113Y011149D02*
X010959Y010996D01*
X011266Y010996D02*
X011266Y011456D01*
X011036Y011456D01*
X010959Y011379D01*
X012914Y011379D02*
X012914Y011072D01*
X012990Y010996D01*
X013144Y010996D01*
X013221Y011072D01*
X012914Y011379D01*
X012990Y011456D01*
X013144Y011456D01*
X013221Y011379D01*
X013221Y011072D01*
X013374Y010996D02*
X013681Y010996D01*
X013527Y010996D02*
X013527Y011456D01*
X013681Y011303D01*
X013834Y011379D02*
X013911Y011456D01*
X014065Y011456D01*
X014141Y011379D01*
X014141Y011072D01*
X014065Y010996D01*
X013911Y010996D01*
X013834Y011072D01*
X018097Y007642D02*
X018174Y007719D01*
X018404Y007719D01*
X018404Y007259D01*
X018174Y007259D01*
X018097Y007335D01*
X018097Y007642D01*
X018557Y007642D02*
X018634Y007719D01*
X018787Y007719D01*
X018864Y007642D01*
X018864Y007565D01*
X018787Y007489D01*
X018634Y007489D01*
X018557Y007412D01*
X018557Y007335D01*
X018634Y007259D01*
X018787Y007259D01*
X018864Y007335D01*
X014017Y004263D02*
X014017Y003956D01*
X013940Y003803D02*
X013786Y003803D01*
X013710Y003726D01*
X013710Y003496D01*
X013710Y003649D02*
X013556Y003803D01*
X013556Y003956D02*
X013633Y003956D01*
X013940Y004263D01*
X014017Y004263D01*
X013940Y003803D02*
X014017Y003726D01*
X014017Y003496D01*
X013556Y003496D01*
X007440Y013365D02*
X007133Y013365D01*
X007056Y013441D01*
X007056Y013595D01*
X007133Y013672D01*
X007056Y013825D02*
X007056Y014132D01*
X007056Y014285D02*
X007363Y014592D01*
X007440Y014592D01*
X007517Y014516D01*
X007517Y014362D01*
X007440Y014285D01*
X007056Y014285D02*
X007056Y014592D01*
X007056Y013978D02*
X007517Y013978D01*
X007363Y013825D01*
X007440Y013672D02*
X007517Y013595D01*
X007517Y013441D01*
X007440Y013365D01*
X004437Y014496D02*
X004437Y014956D01*
X004207Y014956D01*
X004130Y014879D01*
X004130Y014726D01*
X004207Y014649D01*
X004437Y014649D01*
X004284Y014649D02*
X004130Y014496D01*
X003977Y014496D02*
X003670Y014803D01*
X003670Y014879D01*
X003746Y014956D01*
X003900Y014956D01*
X003977Y014879D01*
X003977Y014496D02*
X003670Y014496D01*
X002437Y014572D02*
X002360Y014496D01*
X002207Y014496D01*
X002130Y014572D01*
X001977Y014496D02*
X001670Y014496D01*
X001823Y014496D02*
X001823Y014956D01*
X001977Y014803D01*
X002130Y014879D02*
X002207Y014956D01*
X002360Y014956D01*
X002437Y014879D01*
X002437Y014572D01*
D14*
X008531Y014323D02*
X008531Y013378D01*
X009791Y013378D01*
X009791Y014323D01*
X008531Y014323D01*
X008610Y014119D02*
X008610Y013582D01*
X008612Y013562D01*
X008616Y013543D01*
X008624Y013525D01*
X008634Y013509D01*
X008647Y013494D01*
X008662Y013481D01*
X008678Y013471D01*
X008696Y013463D01*
X008715Y013459D01*
X008735Y013457D01*
X009587Y013457D01*
X009607Y013459D01*
X009626Y013463D01*
X009644Y013471D01*
X009660Y013481D01*
X009675Y013494D01*
X009688Y013509D01*
X009698Y013525D01*
X009706Y013543D01*
X009710Y013562D01*
X009712Y013582D01*
X009712Y014119D01*
X009710Y014139D01*
X009706Y014158D01*
X009698Y014176D01*
X009688Y014192D01*
X009675Y014207D01*
X009660Y014220D01*
X009644Y014230D01*
X009626Y014238D01*
X009607Y014242D01*
X009587Y014244D01*
X008735Y014244D01*
X008715Y014242D01*
X008696Y014238D01*
X008678Y014230D01*
X008662Y014220D01*
X008647Y014207D01*
X008634Y014192D01*
X008624Y014176D01*
X008616Y014158D01*
X008612Y014139D01*
X008610Y014119D01*
X011436Y010826D02*
X011436Y009626D01*
X012136Y009626D01*
X012136Y010826D01*
X011436Y010826D01*
X015032Y007078D02*
X019540Y007078D01*
X019540Y002373D01*
X015032Y002373D01*
X015032Y007078D01*
D15*
X015086Y008976D02*
X015086Y009476D01*
X014486Y009476D02*
X014486Y008976D01*
X011007Y003775D02*
X010652Y003775D01*
X011282Y002791D02*
X011282Y001964D01*
X008920Y003775D02*
X008566Y003775D01*
X008290Y002791D02*
X008290Y001964D01*
D16*
X013668Y004799D02*
X013915Y004799D01*
X014036Y004799D02*
X014283Y004799D01*
X014159Y004799D02*
X014159Y005169D01*
X014283Y005046D01*
X014404Y005107D02*
X014466Y005169D01*
X014589Y005169D01*
X014651Y005107D01*
X014651Y004861D01*
X014589Y004799D01*
X014466Y004799D01*
X014404Y004861D01*
X013915Y005046D02*
X013791Y005169D01*
X013791Y004799D01*
X017763Y008344D02*
X017824Y008283D01*
X017948Y008283D01*
X018010Y008344D01*
X018010Y008406D01*
X017948Y008468D01*
X017824Y008468D01*
X017763Y008406D01*
X017763Y008344D01*
X017824Y008468D02*
X017763Y008530D01*
X017763Y008591D01*
X017824Y008653D01*
X017948Y008653D01*
X018010Y008591D01*
X018010Y008530D01*
X017948Y008468D01*
X018131Y008591D02*
X018193Y008653D01*
X018316Y008653D01*
X018378Y008591D01*
X018378Y008344D01*
X018316Y008283D01*
X018193Y008283D01*
X018131Y008344D01*
X019280Y010759D02*
X019218Y010821D01*
X019218Y010944D01*
X019280Y011006D01*
X019280Y011127D02*
X019218Y011189D01*
X019218Y011313D01*
X019280Y011374D01*
X019527Y011374D01*
X019589Y011313D01*
X019589Y011189D01*
X019527Y011127D01*
X019465Y011127D01*
X019403Y011189D01*
X019403Y011374D01*
X019527Y011006D02*
X019589Y010944D01*
X019589Y010821D01*
X019527Y010759D01*
X019280Y010759D01*
D17*
X014036Y006471D02*
X010036Y006471D01*
M02*
