G75*
G70*
%OFA0B0*%
%FSLAX24Y24*%
%IPPOS*%
%LPD*%
%AMOC8*
5,1,8,0,0,1.08239X$1,22.5*
%
%ADD10C,0.0000*%
%ADD11C,0.0090*%
%ADD12C,0.0050*%
%ADD13C,0.0040*%
%ADD14C,0.0080*%
%ADD15C,0.0060*%
D10*
X000161Y000101D02*
X000161Y017351D01*
X020536Y017351D01*
X020536Y000101D01*
X000161Y000101D01*
X000536Y001101D02*
X000538Y001151D01*
X000544Y001200D01*
X000554Y001249D01*
X000567Y001296D01*
X000585Y001343D01*
X000606Y001388D01*
X000630Y001431D01*
X000658Y001472D01*
X000689Y001511D01*
X000723Y001547D01*
X000760Y001581D01*
X000800Y001611D01*
X000841Y001638D01*
X000885Y001662D01*
X000930Y001682D01*
X000977Y001698D01*
X001025Y001711D01*
X001074Y001720D01*
X001124Y001725D01*
X001173Y001726D01*
X001223Y001723D01*
X001272Y001716D01*
X001321Y001705D01*
X001368Y001691D01*
X001414Y001672D01*
X001459Y001650D01*
X001502Y001625D01*
X001542Y001596D01*
X001580Y001564D01*
X001616Y001530D01*
X001649Y001492D01*
X001678Y001452D01*
X001704Y001410D01*
X001727Y001366D01*
X001746Y001320D01*
X001762Y001273D01*
X001774Y001224D01*
X001782Y001175D01*
X001786Y001126D01*
X001786Y001076D01*
X001782Y001027D01*
X001774Y000978D01*
X001762Y000929D01*
X001746Y000882D01*
X001727Y000836D01*
X001704Y000792D01*
X001678Y000750D01*
X001649Y000710D01*
X001616Y000672D01*
X001580Y000638D01*
X001542Y000606D01*
X001502Y000577D01*
X001459Y000552D01*
X001414Y000530D01*
X001368Y000511D01*
X001321Y000497D01*
X001272Y000486D01*
X001223Y000479D01*
X001173Y000476D01*
X001124Y000477D01*
X001074Y000482D01*
X001025Y000491D01*
X000977Y000504D01*
X000930Y000520D01*
X000885Y000540D01*
X000841Y000564D01*
X000800Y000591D01*
X000760Y000621D01*
X000723Y000655D01*
X000689Y000691D01*
X000658Y000730D01*
X000630Y000771D01*
X000606Y000814D01*
X000585Y000859D01*
X000567Y000906D01*
X000554Y000953D01*
X000544Y001002D01*
X000538Y001051D01*
X000536Y001101D01*
X008743Y002476D02*
X008745Y002502D01*
X008751Y002528D01*
X008761Y002553D01*
X008774Y002576D01*
X008790Y002596D01*
X008810Y002614D01*
X008832Y002629D01*
X008855Y002641D01*
X008881Y002649D01*
X008907Y002653D01*
X008933Y002653D01*
X008959Y002649D01*
X008985Y002641D01*
X009009Y002629D01*
X009030Y002614D01*
X009050Y002596D01*
X009066Y002576D01*
X009079Y002553D01*
X009089Y002528D01*
X009095Y002502D01*
X009097Y002476D01*
X009095Y002450D01*
X009089Y002424D01*
X009079Y002399D01*
X009066Y002376D01*
X009050Y002356D01*
X009030Y002338D01*
X009008Y002323D01*
X008985Y002311D01*
X008959Y002303D01*
X008933Y002299D01*
X008907Y002299D01*
X008881Y002303D01*
X008855Y002311D01*
X008831Y002323D01*
X008810Y002338D01*
X008790Y002356D01*
X008774Y002376D01*
X008761Y002399D01*
X008751Y002424D01*
X008745Y002450D01*
X008743Y002476D01*
X010475Y002476D02*
X010477Y002502D01*
X010483Y002528D01*
X010493Y002553D01*
X010506Y002576D01*
X010522Y002596D01*
X010542Y002614D01*
X010564Y002629D01*
X010587Y002641D01*
X010613Y002649D01*
X010639Y002653D01*
X010665Y002653D01*
X010691Y002649D01*
X010717Y002641D01*
X010741Y002629D01*
X010762Y002614D01*
X010782Y002596D01*
X010798Y002576D01*
X010811Y002553D01*
X010821Y002528D01*
X010827Y002502D01*
X010829Y002476D01*
X010827Y002450D01*
X010821Y002424D01*
X010811Y002399D01*
X010798Y002376D01*
X010782Y002356D01*
X010762Y002338D01*
X010740Y002323D01*
X010717Y002311D01*
X010691Y002303D01*
X010665Y002299D01*
X010639Y002299D01*
X010613Y002303D01*
X010587Y002311D01*
X010563Y002323D01*
X010542Y002338D01*
X010522Y002356D01*
X010506Y002376D01*
X010493Y002399D01*
X010483Y002424D01*
X010477Y002450D01*
X010475Y002476D01*
X018536Y001101D02*
X018538Y001151D01*
X018544Y001200D01*
X018554Y001249D01*
X018567Y001296D01*
X018585Y001343D01*
X018606Y001388D01*
X018630Y001431D01*
X018658Y001472D01*
X018689Y001511D01*
X018723Y001547D01*
X018760Y001581D01*
X018800Y001611D01*
X018841Y001638D01*
X018885Y001662D01*
X018930Y001682D01*
X018977Y001698D01*
X019025Y001711D01*
X019074Y001720D01*
X019124Y001725D01*
X019173Y001726D01*
X019223Y001723D01*
X019272Y001716D01*
X019321Y001705D01*
X019368Y001691D01*
X019414Y001672D01*
X019459Y001650D01*
X019502Y001625D01*
X019542Y001596D01*
X019580Y001564D01*
X019616Y001530D01*
X019649Y001492D01*
X019678Y001452D01*
X019704Y001410D01*
X019727Y001366D01*
X019746Y001320D01*
X019762Y001273D01*
X019774Y001224D01*
X019782Y001175D01*
X019786Y001126D01*
X019786Y001076D01*
X019782Y001027D01*
X019774Y000978D01*
X019762Y000929D01*
X019746Y000882D01*
X019727Y000836D01*
X019704Y000792D01*
X019678Y000750D01*
X019649Y000710D01*
X019616Y000672D01*
X019580Y000638D01*
X019542Y000606D01*
X019502Y000577D01*
X019459Y000552D01*
X019414Y000530D01*
X019368Y000511D01*
X019321Y000497D01*
X019272Y000486D01*
X019223Y000479D01*
X019173Y000476D01*
X019124Y000477D01*
X019074Y000482D01*
X019025Y000491D01*
X018977Y000504D01*
X018930Y000520D01*
X018885Y000540D01*
X018841Y000564D01*
X018800Y000591D01*
X018760Y000621D01*
X018723Y000655D01*
X018689Y000691D01*
X018658Y000730D01*
X018630Y000771D01*
X018606Y000814D01*
X018585Y000859D01*
X018567Y000906D01*
X018554Y000953D01*
X018544Y001002D01*
X018538Y001051D01*
X018536Y001101D01*
X000536Y016476D02*
X000538Y016526D01*
X000544Y016575D01*
X000554Y016624D01*
X000567Y016671D01*
X000585Y016718D01*
X000606Y016763D01*
X000630Y016806D01*
X000658Y016847D01*
X000689Y016886D01*
X000723Y016922D01*
X000760Y016956D01*
X000800Y016986D01*
X000841Y017013D01*
X000885Y017037D01*
X000930Y017057D01*
X000977Y017073D01*
X001025Y017086D01*
X001074Y017095D01*
X001124Y017100D01*
X001173Y017101D01*
X001223Y017098D01*
X001272Y017091D01*
X001321Y017080D01*
X001368Y017066D01*
X001414Y017047D01*
X001459Y017025D01*
X001502Y017000D01*
X001542Y016971D01*
X001580Y016939D01*
X001616Y016905D01*
X001649Y016867D01*
X001678Y016827D01*
X001704Y016785D01*
X001727Y016741D01*
X001746Y016695D01*
X001762Y016648D01*
X001774Y016599D01*
X001782Y016550D01*
X001786Y016501D01*
X001786Y016451D01*
X001782Y016402D01*
X001774Y016353D01*
X001762Y016304D01*
X001746Y016257D01*
X001727Y016211D01*
X001704Y016167D01*
X001678Y016125D01*
X001649Y016085D01*
X001616Y016047D01*
X001580Y016013D01*
X001542Y015981D01*
X001502Y015952D01*
X001459Y015927D01*
X001414Y015905D01*
X001368Y015886D01*
X001321Y015872D01*
X001272Y015861D01*
X001223Y015854D01*
X001173Y015851D01*
X001124Y015852D01*
X001074Y015857D01*
X001025Y015866D01*
X000977Y015879D01*
X000930Y015895D01*
X000885Y015915D01*
X000841Y015939D01*
X000800Y015966D01*
X000760Y015996D01*
X000723Y016030D01*
X000689Y016066D01*
X000658Y016105D01*
X000630Y016146D01*
X000606Y016189D01*
X000585Y016234D01*
X000567Y016281D01*
X000554Y016328D01*
X000544Y016377D01*
X000538Y016426D01*
X000536Y016476D01*
D11*
X018171Y011577D02*
X018171Y011482D01*
X018171Y011577D02*
X018741Y011577D01*
X018741Y011482D02*
X018741Y011672D01*
X018646Y011887D02*
X018456Y011887D01*
X018361Y011982D01*
X018361Y012172D01*
X018456Y012267D01*
X018551Y012267D01*
X018551Y011887D01*
X018646Y011887D02*
X018741Y011982D01*
X018741Y012172D01*
X018741Y012495D02*
X018741Y012780D01*
X018646Y012875D01*
X018551Y012780D01*
X018551Y012590D01*
X018456Y012495D01*
X018361Y012590D01*
X018361Y012875D01*
X018361Y011254D02*
X018361Y010969D01*
X018456Y010874D01*
X018646Y010874D01*
X018741Y010969D01*
X018741Y011254D01*
X018741Y010647D02*
X018741Y010361D01*
X018646Y010266D01*
X018361Y010266D01*
X018266Y010039D02*
X018171Y009944D01*
X018171Y009754D01*
X018266Y009659D01*
X018646Y009659D01*
X018741Y009754D01*
X018741Y009944D01*
X018646Y010039D01*
X018931Y010456D02*
X018931Y010552D01*
X018836Y010647D01*
X018361Y010647D01*
X018741Y009444D02*
X018741Y009254D01*
X018741Y009349D02*
X018361Y009349D01*
X018361Y009254D01*
X018171Y009349D02*
X018076Y009349D01*
X018456Y009026D02*
X018361Y008931D01*
X018361Y008646D01*
X018171Y008646D02*
X018741Y008646D01*
X018741Y008931D01*
X018646Y009026D01*
X018456Y009026D01*
D12*
X019403Y010626D02*
X019636Y010626D01*
X019520Y010626D02*
X019403Y010743D01*
X019403Y010801D01*
X019461Y010933D02*
X019403Y010991D01*
X019403Y011108D01*
X019461Y011166D01*
X019520Y011166D01*
X019520Y010933D01*
X019578Y010933D02*
X019461Y010933D01*
X019578Y010933D02*
X019636Y010991D01*
X019636Y011108D01*
X019403Y011301D02*
X019636Y011418D01*
X019403Y011534D01*
X019578Y011669D02*
X019578Y011728D01*
X019636Y011728D01*
X019636Y011669D01*
X019578Y011669D01*
X019578Y012222D02*
X019344Y012222D01*
X019286Y012280D01*
X019286Y012397D01*
X019344Y012455D01*
X019578Y012222D01*
X019636Y012280D01*
X019636Y012397D01*
X019578Y012455D01*
X019344Y012455D01*
X019578Y012590D02*
X019578Y012648D01*
X019636Y012648D01*
X019636Y012590D01*
X019578Y012590D01*
X019636Y012774D02*
X019636Y013008D01*
X019636Y012891D02*
X019286Y012891D01*
X019403Y012774D01*
X005841Y003922D02*
X005841Y002780D01*
X005231Y002780D01*
X005231Y003922D01*
X005841Y003922D01*
D13*
X020039Y009325D02*
X020087Y009277D01*
X020329Y009277D01*
X020184Y009229D02*
X020184Y009325D01*
X020184Y009431D02*
X020184Y009528D01*
X020087Y009479D02*
X020039Y009528D01*
X020087Y009479D02*
X020329Y009479D01*
X020329Y009634D02*
X020329Y009730D01*
X020329Y009682D02*
X020135Y009682D01*
X020135Y009634D01*
X020039Y009682D02*
X019990Y009682D01*
X020135Y009836D02*
X020135Y009981D01*
X020184Y010030D01*
X020329Y010030D01*
X020280Y010140D02*
X020087Y010140D01*
X020039Y010188D01*
X020039Y010285D01*
X020087Y010334D01*
X020184Y010334D01*
X020232Y010285D01*
X020135Y010285D01*
X020135Y010188D01*
X020232Y010188D01*
X020232Y010285D01*
X020280Y010334D02*
X020329Y010285D01*
X020329Y010188D01*
X020280Y010140D01*
X020329Y010444D02*
X020135Y010444D01*
X020135Y010492D01*
X020184Y010541D01*
X020135Y010589D01*
X020184Y010637D01*
X020329Y010637D01*
X020329Y010541D02*
X020184Y010541D01*
X020135Y010748D02*
X020135Y010796D01*
X020329Y010796D01*
X020329Y010748D02*
X020329Y010844D01*
X020280Y010999D02*
X020329Y011047D01*
X020280Y010999D02*
X020087Y010999D01*
X020135Y011047D02*
X020135Y010950D01*
X020039Y010796D02*
X019990Y010796D01*
X020280Y011153D02*
X020280Y011201D01*
X020329Y011201D01*
X020329Y011153D01*
X020280Y011153D01*
X020280Y011305D02*
X020184Y011305D01*
X020135Y011353D01*
X020135Y011450D01*
X020184Y011498D01*
X020232Y011498D01*
X020232Y011305D01*
X020280Y011305D02*
X020329Y011353D01*
X020329Y011450D01*
X020280Y011609D02*
X020184Y011609D01*
X020135Y011657D01*
X020135Y011802D01*
X020039Y011802D02*
X020329Y011802D01*
X020329Y011657D01*
X020280Y011609D01*
X020280Y011913D02*
X020329Y011961D01*
X020329Y012106D01*
X020135Y012106D01*
X020135Y011913D02*
X020280Y011913D01*
X020329Y009836D02*
X020135Y009836D01*
X020135Y009118D02*
X020329Y009118D01*
X020329Y008973D01*
X020280Y008925D01*
X020135Y008925D01*
X020184Y008814D02*
X020329Y008814D01*
X020329Y008718D02*
X020184Y008718D01*
X020135Y008766D01*
X020184Y008814D01*
X020184Y008718D02*
X020135Y008669D01*
X020135Y008621D01*
X020329Y008621D01*
D14*
X017136Y010101D02*
X016997Y009864D01*
X016869Y009621D01*
X016753Y009372D01*
X016649Y009117D01*
X016558Y008858D01*
X016479Y008595D01*
X016413Y008328D01*
X016360Y008058D01*
X016321Y007786D01*
X016294Y007513D01*
X016281Y007238D01*
X016281Y006964D01*
X016294Y006689D01*
X016321Y006416D01*
X016360Y006144D01*
X016413Y005874D01*
X016479Y005607D01*
X016558Y005344D01*
X016649Y005085D01*
X016753Y004830D01*
X016869Y004581D01*
X016997Y004338D01*
X017136Y004101D01*
X017136Y004100D02*
X017168Y004036D01*
X017197Y003970D01*
X017222Y003902D01*
X017243Y003833D01*
X017261Y003763D01*
X017275Y003693D01*
X017286Y003621D01*
X017292Y003550D01*
X017295Y003478D01*
X017294Y003406D01*
X017289Y003334D01*
X017280Y003262D01*
X017268Y003191D01*
X017252Y003121D01*
X017232Y003052D01*
X017209Y002983D01*
X017182Y002917D01*
X017152Y002851D01*
X017118Y002788D01*
X017081Y002726D01*
X017040Y002666D01*
X016997Y002609D01*
X016951Y002553D01*
X016901Y002501D01*
X016849Y002451D01*
X016795Y002404D01*
X016738Y002359D01*
X016679Y002318D01*
X016618Y002280D01*
X016554Y002245D01*
X016490Y002214D01*
X016423Y002186D01*
X016355Y002162D01*
X016286Y002141D01*
X016216Y002124D01*
X016145Y002111D01*
X016074Y002101D01*
X016002Y002095D01*
X015930Y002093D01*
X015858Y002095D01*
X015786Y002100D01*
X015786Y002101D02*
X014286Y002101D01*
X012286Y002101D02*
X010786Y002101D01*
X008286Y005601D01*
X008286Y008601D01*
X010786Y012101D01*
X012286Y012101D01*
X014201Y012391D02*
X014411Y012391D01*
X014481Y012461D01*
X014481Y012531D01*
X014411Y012601D01*
X014201Y012601D01*
X014201Y012811D02*
X014411Y012811D01*
X014481Y012741D01*
X014481Y012671D01*
X014411Y012601D01*
X014662Y012601D02*
X014942Y012601D01*
X014942Y012671D02*
X014942Y012391D01*
X015262Y012391D02*
X015262Y012811D01*
X015122Y012811D02*
X015402Y012811D01*
X015582Y012671D02*
X015722Y012811D01*
X015722Y012391D01*
X015582Y012391D02*
X015863Y012391D01*
X015786Y012101D02*
X014286Y012101D01*
X014201Y012391D02*
X014201Y012811D01*
X014662Y012671D02*
X014802Y012811D01*
X014942Y012671D01*
X014662Y012671D02*
X014662Y012391D01*
X015786Y012101D02*
X015858Y012106D01*
X015930Y012108D01*
X016002Y012106D01*
X016074Y012100D01*
X016145Y012090D01*
X016216Y012077D01*
X016286Y012060D01*
X016355Y012039D01*
X016423Y012015D01*
X016490Y011987D01*
X016554Y011956D01*
X016618Y011921D01*
X016679Y011883D01*
X016738Y011842D01*
X016795Y011797D01*
X016849Y011750D01*
X016901Y011700D01*
X016951Y011648D01*
X016997Y011592D01*
X017040Y011535D01*
X017081Y011475D01*
X017118Y011413D01*
X017152Y011350D01*
X017182Y011284D01*
X017209Y011218D01*
X017232Y011149D01*
X017252Y011080D01*
X017268Y011010D01*
X017280Y010939D01*
X017289Y010867D01*
X017294Y010795D01*
X017295Y010723D01*
X017292Y010651D01*
X017286Y010579D01*
X017275Y010508D01*
X017261Y010437D01*
X017243Y010368D01*
X017222Y010299D01*
X017197Y010231D01*
X017168Y010165D01*
X017136Y010100D01*
X017331Y013486D02*
X017401Y013556D01*
X017401Y013626D01*
X017331Y013696D01*
X016981Y013696D01*
X016981Y013626D02*
X016981Y013766D01*
X016981Y013946D02*
X016981Y014156D01*
X017051Y014226D01*
X017191Y014226D01*
X017261Y014156D01*
X017261Y013946D01*
X017401Y013946D02*
X016981Y013946D01*
X017191Y014406D02*
X017191Y014617D01*
X017261Y014687D01*
X017331Y014687D01*
X017401Y014617D01*
X017401Y014477D01*
X017331Y014406D01*
X017191Y014406D01*
X017051Y014547D01*
X016981Y014687D01*
X017331Y015361D02*
X017401Y015431D01*
X017401Y015501D01*
X017331Y015571D01*
X016981Y015571D01*
X016981Y015501D02*
X016981Y015641D01*
X016981Y015821D02*
X016981Y016031D01*
X017051Y016101D01*
X017191Y016101D01*
X017261Y016031D01*
X017261Y015821D01*
X017401Y015821D02*
X016981Y015821D01*
X016981Y016281D02*
X017191Y016281D01*
X017121Y016422D01*
X017121Y016492D01*
X017191Y016562D01*
X017331Y016562D01*
X017401Y016492D01*
X017401Y016352D01*
X017331Y016281D01*
X016981Y016281D02*
X016981Y016562D01*
X015676Y014881D02*
X015746Y014811D01*
X015746Y014671D01*
X015676Y014601D01*
X015676Y014421D02*
X015746Y014351D01*
X015746Y014211D01*
X015676Y014141D01*
X015396Y014141D01*
X015326Y014211D01*
X015326Y014351D01*
X015396Y014421D01*
X015396Y014601D02*
X015326Y014671D01*
X015326Y014811D01*
X015396Y014881D01*
X015466Y014881D01*
X015536Y014811D01*
X015606Y014881D01*
X015676Y014881D01*
X015536Y014811D02*
X015536Y014741D01*
X012567Y014311D02*
X012287Y014311D01*
X012287Y014101D01*
X012427Y014171D01*
X012497Y014171D01*
X012567Y014101D01*
X012567Y013961D01*
X012497Y013891D01*
X012357Y013891D01*
X012287Y013961D01*
X012106Y013961D02*
X012036Y013891D01*
X011896Y013891D01*
X011826Y013961D01*
X011826Y014241D01*
X011896Y014311D01*
X012036Y014311D01*
X012106Y014241D01*
X011991Y014766D02*
X012061Y014836D01*
X011991Y014766D02*
X011851Y014766D01*
X011781Y014836D01*
X011781Y015116D01*
X011851Y015186D01*
X011991Y015186D01*
X012061Y015116D01*
X012241Y014976D02*
X012521Y014976D01*
X012451Y014766D02*
X012451Y015186D01*
X012241Y014976D01*
X006521Y011866D02*
X006451Y011936D01*
X006311Y011936D01*
X006241Y011866D01*
X006061Y011866D02*
X005991Y011936D01*
X005851Y011936D01*
X005781Y011866D01*
X005781Y011586D01*
X005851Y011516D01*
X005991Y011516D01*
X006061Y011586D01*
X006241Y011516D02*
X006521Y011796D01*
X006521Y011866D01*
X006521Y011516D02*
X006241Y011516D01*
X002861Y013126D02*
X002861Y014826D01*
X002066Y015176D02*
X001261Y015176D01*
X001396Y015266D02*
X001326Y015336D01*
X001396Y015266D02*
X001536Y015266D01*
X001606Y015336D01*
X001606Y015406D01*
X001536Y015476D01*
X001396Y015476D01*
X001326Y015546D01*
X001326Y015616D01*
X001396Y015686D01*
X001536Y015686D01*
X001606Y015616D01*
X001787Y015616D02*
X001857Y015686D01*
X001997Y015686D01*
X002067Y015616D01*
X002067Y015546D01*
X001787Y015266D01*
X002067Y015266D01*
X000961Y013976D02*
X000963Y014028D01*
X000969Y014080D01*
X000979Y014132D01*
X000992Y014182D01*
X001009Y014232D01*
X001030Y014280D01*
X001055Y014326D01*
X001083Y014370D01*
X001114Y014412D01*
X001148Y014452D01*
X001185Y014489D01*
X001225Y014523D01*
X001267Y014554D01*
X001311Y014582D01*
X001357Y014607D01*
X001405Y014628D01*
X001455Y014645D01*
X001505Y014658D01*
X001557Y014668D01*
X001609Y014674D01*
X001661Y014676D01*
X001713Y014674D01*
X001765Y014668D01*
X001817Y014658D01*
X001867Y014645D01*
X001917Y014628D01*
X001965Y014607D01*
X002011Y014582D01*
X002055Y014554D01*
X002097Y014523D01*
X002137Y014489D01*
X002174Y014452D01*
X002208Y014412D01*
X002239Y014370D01*
X002267Y014326D01*
X002292Y014280D01*
X002313Y014232D01*
X002330Y014182D01*
X002343Y014132D01*
X002353Y014080D01*
X002359Y014028D01*
X002361Y013976D01*
X002359Y013924D01*
X002353Y013872D01*
X002343Y013820D01*
X002330Y013770D01*
X002313Y013720D01*
X002292Y013672D01*
X002267Y013626D01*
X002239Y013582D01*
X002208Y013540D01*
X002174Y013500D01*
X002137Y013463D01*
X002097Y013429D01*
X002055Y013398D01*
X002011Y013370D01*
X001965Y013345D01*
X001917Y013324D01*
X001867Y013307D01*
X001817Y013294D01*
X001765Y013284D01*
X001713Y013278D01*
X001661Y013276D01*
X001609Y013278D01*
X001557Y013284D01*
X001505Y013294D01*
X001455Y013307D01*
X001405Y013324D01*
X001357Y013345D01*
X001311Y013370D01*
X001267Y013398D01*
X001225Y013429D01*
X001185Y013463D01*
X001148Y013500D01*
X001114Y013540D01*
X001083Y013582D01*
X001055Y013626D01*
X001030Y013672D01*
X001009Y013720D01*
X000992Y013770D01*
X000979Y013820D01*
X000969Y013872D01*
X000963Y013924D01*
X000961Y013976D01*
X000461Y014826D02*
X000461Y013126D01*
X001261Y012776D02*
X002054Y012776D01*
X002036Y012101D02*
X001536Y012101D01*
X007018Y006671D02*
X007805Y006671D01*
X007805Y006119D01*
X007687Y005844D02*
X007411Y005844D01*
X007647Y005608D01*
X007175Y005608D01*
X007411Y005844D01*
X007136Y005844D01*
X007018Y006119D02*
X007018Y006671D01*
X005817Y005561D02*
X005677Y005491D01*
X005537Y005351D01*
X005747Y005351D01*
X005817Y005281D01*
X005817Y005211D01*
X005747Y005141D01*
X005607Y005141D01*
X005537Y005211D01*
X005537Y005351D01*
X005356Y005491D02*
X005286Y005561D01*
X005146Y005561D01*
X005076Y005491D01*
X005076Y005211D01*
X005146Y005141D01*
X005286Y005141D01*
X005356Y005211D01*
X007018Y005332D02*
X007018Y004781D01*
X007805Y004781D01*
X007805Y005332D01*
X007646Y003461D02*
X007926Y003180D01*
X007996Y003180D01*
X007926Y003000D02*
X007996Y002930D01*
X007996Y002790D01*
X007926Y002720D01*
X007646Y002720D01*
X007576Y002790D01*
X007576Y002930D01*
X007646Y003000D01*
X007576Y003180D02*
X007576Y003461D01*
X007646Y003461D01*
X005701Y001561D02*
X005561Y001561D01*
X005491Y001491D01*
X005311Y001491D02*
X005311Y001351D01*
X005241Y001281D01*
X005031Y001281D01*
X005171Y001281D02*
X005311Y001141D01*
X005491Y001211D02*
X005561Y001141D01*
X005701Y001141D01*
X005771Y001211D01*
X005771Y001281D01*
X005701Y001351D01*
X005631Y001351D01*
X005701Y001351D02*
X005771Y001421D01*
X005771Y001491D01*
X005701Y001561D01*
X005311Y001491D02*
X005241Y001561D01*
X005031Y001561D01*
X005031Y001141D01*
X002861Y003126D02*
X002861Y004826D01*
X002066Y005176D02*
X001261Y005176D01*
X000461Y004826D02*
X000461Y003126D01*
X001261Y002776D02*
X002054Y002776D01*
X001927Y002436D02*
X001787Y002296D01*
X001606Y002366D02*
X001536Y002436D01*
X001396Y002436D01*
X001326Y002366D01*
X001326Y002296D01*
X001396Y002226D01*
X001536Y002226D01*
X001606Y002156D01*
X001606Y002086D01*
X001536Y002016D01*
X001396Y002016D01*
X001326Y002086D01*
X001787Y002016D02*
X002067Y002016D01*
X001927Y002016D02*
X001927Y002436D01*
X000961Y003976D02*
X000963Y004028D01*
X000969Y004080D01*
X000979Y004132D01*
X000992Y004182D01*
X001009Y004232D01*
X001030Y004280D01*
X001055Y004326D01*
X001083Y004370D01*
X001114Y004412D01*
X001148Y004452D01*
X001185Y004489D01*
X001225Y004523D01*
X001267Y004554D01*
X001311Y004582D01*
X001357Y004607D01*
X001405Y004628D01*
X001455Y004645D01*
X001505Y004658D01*
X001557Y004668D01*
X001609Y004674D01*
X001661Y004676D01*
X001713Y004674D01*
X001765Y004668D01*
X001817Y004658D01*
X001867Y004645D01*
X001917Y004628D01*
X001965Y004607D01*
X002011Y004582D01*
X002055Y004554D01*
X002097Y004523D01*
X002137Y004489D01*
X002174Y004452D01*
X002208Y004412D01*
X002239Y004370D01*
X002267Y004326D01*
X002292Y004280D01*
X002313Y004232D01*
X002330Y004182D01*
X002343Y004132D01*
X002353Y004080D01*
X002359Y004028D01*
X002361Y003976D01*
X002359Y003924D01*
X002353Y003872D01*
X002343Y003820D01*
X002330Y003770D01*
X002313Y003720D01*
X002292Y003672D01*
X002267Y003626D01*
X002239Y003582D01*
X002208Y003540D01*
X002174Y003500D01*
X002137Y003463D01*
X002097Y003429D01*
X002055Y003398D01*
X002011Y003370D01*
X001965Y003345D01*
X001917Y003324D01*
X001867Y003307D01*
X001817Y003294D01*
X001765Y003284D01*
X001713Y003278D01*
X001661Y003276D01*
X001609Y003278D01*
X001557Y003284D01*
X001505Y003294D01*
X001455Y003307D01*
X001405Y003324D01*
X001357Y003345D01*
X001311Y003370D01*
X001267Y003398D01*
X001225Y003429D01*
X001185Y003463D01*
X001148Y003500D01*
X001114Y003540D01*
X001083Y003582D01*
X001055Y003626D01*
X001030Y003672D01*
X001009Y003720D01*
X000992Y003770D01*
X000979Y003820D01*
X000969Y003872D01*
X000963Y003924D01*
X000961Y003976D01*
X001536Y006101D02*
X002036Y006101D01*
D15*
X006818Y004646D02*
X006818Y004306D01*
X007045Y004306D01*
X007186Y004306D02*
X007413Y004306D01*
X007555Y004306D02*
X007725Y004306D01*
X007781Y004362D01*
X007781Y004589D01*
X007725Y004646D01*
X007555Y004646D01*
X007555Y004306D01*
X007300Y004476D02*
X007186Y004476D01*
X007186Y004646D02*
X007186Y004306D01*
X007186Y004646D02*
X007413Y004646D01*
X007923Y004533D02*
X008036Y004646D01*
X008036Y004306D01*
X007923Y004306D02*
X008150Y004306D01*
X017786Y013851D02*
X018286Y013851D01*
X018536Y014101D01*
X018786Y013851D01*
X019286Y013851D01*
X019536Y014101D01*
X019786Y013851D01*
X020286Y013851D01*
X020536Y014101D01*
X020536Y014601D01*
X020286Y014851D01*
X019786Y014851D01*
X019536Y014601D01*
X019536Y014101D01*
X019536Y014601D02*
X019286Y014851D01*
X018786Y014851D01*
X018536Y014601D01*
X018536Y014101D01*
X018536Y014601D02*
X018286Y014851D01*
X017786Y014851D01*
X017536Y014601D01*
X017536Y014101D01*
X017786Y013851D01*
X017786Y015226D02*
X018286Y015226D01*
X018536Y015476D01*
X018786Y015226D01*
X019286Y015226D01*
X019536Y015476D01*
X019786Y015226D01*
X020286Y015226D01*
X020536Y015476D01*
X020536Y015976D01*
X020286Y016226D01*
X019786Y016226D01*
X019536Y015976D01*
X019536Y015476D01*
X019536Y015976D02*
X019286Y016226D01*
X018786Y016226D01*
X018536Y015976D01*
X018536Y015476D01*
X018536Y015976D02*
X018286Y016226D01*
X017786Y016226D01*
X017536Y015976D01*
X017536Y015476D01*
X017786Y015226D01*
M02*
