G75*
G70*
%OFA0B0*%
%FSLAX24Y24*%
%IPPOS*%
%LPD*%
%AMOC8*
5,1,8,0,0,1.08239X$1,22.5*
%
%ADD10C,0.0376*%
%ADD11C,0.0600*%
%ADD12C,0.0160*%
D10*
X001431Y000743D02*
X001431Y001120D01*
X001931Y001120D02*
X001931Y000743D01*
X002431Y000743D02*
X002431Y001120D01*
D11*
X001931Y004131D02*
X001931Y004731D01*
X000931Y004731D02*
X000931Y004131D01*
X002931Y004131D02*
X002931Y004731D01*
D12*
X000411Y000411D02*
X000411Y011951D01*
X001543Y011951D01*
X001444Y011910D01*
X001202Y011669D01*
X001071Y011352D01*
X001071Y011010D01*
X001202Y010694D01*
X001444Y010452D01*
X001760Y010321D01*
X002102Y010321D01*
X002419Y010452D01*
X002660Y010694D01*
X002791Y011010D01*
X002791Y011352D01*
X002660Y011669D01*
X002419Y011910D01*
X002319Y011951D01*
X003451Y011951D01*
X003451Y004861D01*
X003381Y005032D01*
X003232Y005181D01*
X003037Y005261D01*
X002826Y005261D01*
X002631Y005181D01*
X002482Y005032D01*
X002431Y004909D01*
X002381Y005032D01*
X002232Y005181D01*
X002037Y005261D01*
X001826Y005261D01*
X001631Y005181D01*
X001482Y005032D01*
X001401Y004837D01*
X001401Y004832D01*
X001400Y004844D01*
X001376Y004916D01*
X001342Y004983D01*
X001298Y005044D01*
X001244Y005098D01*
X001183Y005142D01*
X001116Y005176D01*
X001044Y005200D01*
X000969Y005211D01*
X000951Y005211D01*
X000951Y004452D01*
X000911Y004452D01*
X000911Y005211D01*
X000894Y005211D01*
X000819Y005200D01*
X000747Y005176D01*
X000680Y005142D01*
X000619Y005098D01*
X000565Y005044D01*
X000521Y004983D01*
X000487Y004916D01*
X000463Y004844D01*
X000451Y004769D01*
X000451Y004451D01*
X000911Y004451D01*
X000911Y004411D01*
X000451Y004411D01*
X000451Y004094D01*
X000463Y004019D01*
X000487Y003947D01*
X000521Y003880D01*
X000565Y003819D01*
X000619Y003765D01*
X000680Y003721D01*
X000747Y003687D01*
X000819Y003663D01*
X000894Y003651D01*
X000911Y003651D01*
X000911Y004411D01*
X000951Y004411D01*
X000951Y003651D01*
X000969Y003651D01*
X001044Y003663D01*
X001116Y003687D01*
X001183Y003721D01*
X001244Y003765D01*
X001298Y003819D01*
X001342Y003880D01*
X001376Y003947D01*
X001400Y004019D01*
X001401Y004031D01*
X001401Y004026D01*
X001482Y003831D01*
X001631Y003682D01*
X001826Y003601D01*
X002037Y003601D01*
X002232Y003682D01*
X002381Y003831D01*
X002431Y003954D01*
X002482Y003831D01*
X002631Y003682D01*
X002826Y003601D01*
X003037Y003601D01*
X003232Y003682D01*
X003381Y003831D01*
X003451Y004002D01*
X003451Y000411D01*
X002691Y000411D01*
X002786Y000506D01*
X002849Y000660D01*
X002849Y001203D01*
X002786Y001356D01*
X002668Y001474D01*
X002515Y001538D01*
X002348Y001538D01*
X002195Y001474D01*
X002142Y001421D01*
X002106Y001446D01*
X002039Y001473D01*
X001968Y001488D01*
X001932Y001488D01*
X001932Y000932D01*
X001931Y000932D01*
X001931Y001488D01*
X001895Y001488D01*
X001824Y001473D01*
X001757Y001446D01*
X001721Y001421D01*
X001668Y001474D01*
X001515Y001538D01*
X001348Y001538D01*
X001195Y001474D01*
X001077Y001356D01*
X001013Y001203D01*
X001013Y000660D01*
X001077Y000506D01*
X001172Y000411D01*
X000411Y000411D01*
X000411Y000499D02*
X001085Y000499D01*
X001015Y000657D02*
X000411Y000657D01*
X000411Y000816D02*
X001013Y000816D01*
X001013Y000974D02*
X000411Y000974D01*
X000411Y001133D02*
X001013Y001133D01*
X001050Y001291D02*
X000411Y001291D01*
X000411Y001450D02*
X001170Y001450D01*
X001692Y001450D02*
X001767Y001450D01*
X001931Y001450D02*
X001932Y001450D01*
X001931Y001291D02*
X001932Y001291D01*
X001931Y001133D02*
X001932Y001133D01*
X001931Y000974D02*
X001932Y000974D01*
X001931Y000931D02*
X001931Y003328D01*
X001578Y003681D01*
X000931Y003681D01*
X000931Y004431D01*
X000911Y004462D02*
X000951Y004462D01*
X000951Y004304D02*
X000911Y004304D01*
X000911Y004145D02*
X000951Y004145D01*
X000951Y003986D02*
X000911Y003986D01*
X000911Y003828D02*
X000951Y003828D01*
X000951Y003669D02*
X000911Y003669D01*
X000800Y003669D02*
X000411Y003669D01*
X000411Y003828D02*
X000559Y003828D01*
X000474Y003986D02*
X000411Y003986D01*
X000411Y004145D02*
X000451Y004145D01*
X000451Y004304D02*
X000411Y004304D01*
X000411Y004462D02*
X000451Y004462D01*
X000451Y004621D02*
X000411Y004621D01*
X000411Y004779D02*
X000453Y004779D01*
X000411Y004938D02*
X000498Y004938D01*
X000411Y005096D02*
X000617Y005096D01*
X000411Y005255D02*
X001810Y005255D01*
X001760Y005321D02*
X002102Y005321D01*
X002419Y005452D01*
X002660Y005694D01*
X002791Y006010D01*
X002791Y006352D01*
X002660Y006669D01*
X002419Y006910D01*
X002102Y007041D01*
X001760Y007041D01*
X001444Y006910D01*
X001202Y006669D01*
X001071Y006352D01*
X001071Y006010D01*
X001202Y005694D01*
X001444Y005452D01*
X001760Y005321D01*
X001539Y005413D02*
X000411Y005413D01*
X000411Y005572D02*
X001325Y005572D01*
X001187Y005730D02*
X000411Y005730D01*
X000411Y005889D02*
X001122Y005889D01*
X001071Y006048D02*
X000411Y006048D01*
X000411Y006206D02*
X001071Y006206D01*
X001077Y006365D02*
X000411Y006365D01*
X000411Y006523D02*
X001142Y006523D01*
X001216Y006682D02*
X000411Y006682D01*
X000411Y006840D02*
X001374Y006840D01*
X001658Y006999D02*
X000411Y006999D01*
X000411Y007157D02*
X003451Y007157D01*
X003451Y006999D02*
X002205Y006999D01*
X002489Y006840D02*
X003451Y006840D01*
X003451Y006682D02*
X002647Y006682D01*
X002721Y006523D02*
X003451Y006523D01*
X003451Y006365D02*
X002786Y006365D01*
X002791Y006206D02*
X003451Y006206D01*
X003451Y006048D02*
X002791Y006048D01*
X002741Y005889D02*
X003451Y005889D01*
X003451Y005730D02*
X002675Y005730D01*
X002538Y005572D02*
X003451Y005572D01*
X003451Y005413D02*
X002324Y005413D01*
X002316Y005096D02*
X002547Y005096D01*
X002443Y004938D02*
X002420Y004938D01*
X002053Y005255D02*
X002810Y005255D01*
X003053Y005255D02*
X003451Y005255D01*
X003451Y005096D02*
X003316Y005096D01*
X003420Y004938D02*
X003451Y004938D01*
X003445Y003986D02*
X003451Y003986D01*
X003451Y003828D02*
X003377Y003828D01*
X003451Y003669D02*
X003201Y003669D01*
X003451Y003511D02*
X000411Y003511D01*
X000411Y003352D02*
X003451Y003352D01*
X003451Y003194D02*
X000411Y003194D01*
X000411Y003035D02*
X003451Y003035D01*
X003451Y002877D02*
X000411Y002877D01*
X000411Y002718D02*
X003451Y002718D01*
X003451Y002560D02*
X000411Y002560D01*
X000411Y002401D02*
X003451Y002401D01*
X003451Y002242D02*
X000411Y002242D01*
X000411Y002084D02*
X003451Y002084D01*
X003451Y001925D02*
X000411Y001925D01*
X000411Y001767D02*
X003451Y001767D01*
X003451Y001608D02*
X000411Y001608D01*
X001063Y003669D02*
X001662Y003669D01*
X001485Y003828D02*
X001304Y003828D01*
X001389Y003986D02*
X001418Y003986D01*
X001443Y004938D02*
X001365Y004938D01*
X001245Y005096D02*
X001547Y005096D01*
X000951Y005096D02*
X000911Y005096D01*
X000911Y004938D02*
X000951Y004938D01*
X000951Y004779D02*
X000911Y004779D01*
X000911Y004621D02*
X000951Y004621D01*
X000411Y007316D02*
X003451Y007316D01*
X003451Y007474D02*
X000411Y007474D01*
X000411Y007633D02*
X003451Y007633D01*
X003451Y007791D02*
X000411Y007791D01*
X000411Y007950D02*
X003451Y007950D01*
X003451Y008109D02*
X000411Y008109D01*
X000411Y008267D02*
X003451Y008267D01*
X003451Y008426D02*
X000411Y008426D01*
X000411Y008584D02*
X003451Y008584D01*
X003451Y008743D02*
X000411Y008743D01*
X000411Y008901D02*
X003451Y008901D01*
X003451Y009060D02*
X000411Y009060D01*
X000411Y009218D02*
X003451Y009218D01*
X003451Y009377D02*
X000411Y009377D01*
X000411Y009535D02*
X003451Y009535D01*
X003451Y009694D02*
X000411Y009694D01*
X000411Y009853D02*
X003451Y009853D01*
X003451Y010011D02*
X000411Y010011D01*
X000411Y010170D02*
X003451Y010170D01*
X003451Y010328D02*
X002119Y010328D01*
X002453Y010487D02*
X003451Y010487D01*
X003451Y010645D02*
X002611Y010645D01*
X002706Y010804D02*
X003451Y010804D01*
X003451Y010962D02*
X002771Y010962D01*
X002791Y011121D02*
X003451Y011121D01*
X003451Y011279D02*
X002791Y011279D01*
X002756Y011438D02*
X003451Y011438D01*
X003451Y011597D02*
X002690Y011597D01*
X002574Y011755D02*
X003451Y011755D01*
X003451Y011914D02*
X002411Y011914D01*
X001744Y010328D02*
X000411Y010328D01*
X000411Y010487D02*
X001410Y010487D01*
X001251Y010645D02*
X000411Y010645D01*
X000411Y010804D02*
X001157Y010804D01*
X001091Y010962D02*
X000411Y010962D01*
X000411Y011121D02*
X001071Y011121D01*
X001071Y011279D02*
X000411Y011279D01*
X000411Y011438D02*
X001107Y011438D01*
X001173Y011597D02*
X000411Y011597D01*
X000411Y011755D02*
X001289Y011755D01*
X001452Y011914D02*
X000411Y011914D01*
X002377Y003828D02*
X002485Y003828D01*
X002662Y003669D02*
X002201Y003669D01*
X002170Y001450D02*
X002096Y001450D01*
X002692Y001450D02*
X003451Y001450D01*
X003451Y001291D02*
X002813Y001291D01*
X002849Y001133D02*
X003451Y001133D01*
X003451Y000974D02*
X002849Y000974D01*
X002849Y000816D02*
X003451Y000816D01*
X003451Y000657D02*
X002848Y000657D01*
X002778Y000499D02*
X003451Y000499D01*
M02*
