G75*
G70*
%OFA0B0*%
%FSLAX24Y24*%
%IPPOS*%
%LPD*%
%AMOC8*
5,1,8,0,0,1.08239X$1,22.5*
%
%ADD10C,0.0000*%
%ADD11C,0.0060*%
%ADD12C,0.0080*%
D10*
X000181Y000181D02*
X000181Y012181D01*
X003681Y012181D01*
X003681Y000181D01*
X000181Y000181D01*
X001301Y006181D02*
X001303Y006231D01*
X001309Y006281D01*
X001319Y006330D01*
X001333Y006378D01*
X001350Y006425D01*
X001371Y006470D01*
X001396Y006514D01*
X001424Y006555D01*
X001456Y006594D01*
X001490Y006631D01*
X001527Y006665D01*
X001567Y006695D01*
X001609Y006722D01*
X001653Y006746D01*
X001699Y006767D01*
X001746Y006783D01*
X001794Y006796D01*
X001844Y006805D01*
X001893Y006810D01*
X001944Y006811D01*
X001994Y006808D01*
X002043Y006801D01*
X002092Y006790D01*
X002140Y006775D01*
X002186Y006757D01*
X002231Y006735D01*
X002274Y006709D01*
X002315Y006680D01*
X002354Y006648D01*
X002390Y006613D01*
X002422Y006575D01*
X002452Y006535D01*
X002479Y006492D01*
X002502Y006448D01*
X002521Y006402D01*
X002537Y006354D01*
X002549Y006305D01*
X002557Y006256D01*
X002561Y006206D01*
X002561Y006156D01*
X002557Y006106D01*
X002549Y006057D01*
X002537Y006008D01*
X002521Y005960D01*
X002502Y005914D01*
X002479Y005870D01*
X002452Y005827D01*
X002422Y005787D01*
X002390Y005749D01*
X002354Y005714D01*
X002315Y005682D01*
X002274Y005653D01*
X002231Y005627D01*
X002186Y005605D01*
X002140Y005587D01*
X002092Y005572D01*
X002043Y005561D01*
X001994Y005554D01*
X001944Y005551D01*
X001893Y005552D01*
X001844Y005557D01*
X001794Y005566D01*
X001746Y005579D01*
X001699Y005595D01*
X001653Y005616D01*
X001609Y005640D01*
X001567Y005667D01*
X001527Y005697D01*
X001490Y005731D01*
X001456Y005768D01*
X001424Y005807D01*
X001396Y005848D01*
X001371Y005892D01*
X001350Y005937D01*
X001333Y005984D01*
X001319Y006032D01*
X001309Y006081D01*
X001303Y006131D01*
X001301Y006181D01*
X001301Y011181D02*
X001303Y011231D01*
X001309Y011281D01*
X001319Y011330D01*
X001333Y011378D01*
X001350Y011425D01*
X001371Y011470D01*
X001396Y011514D01*
X001424Y011555D01*
X001456Y011594D01*
X001490Y011631D01*
X001527Y011665D01*
X001567Y011695D01*
X001609Y011722D01*
X001653Y011746D01*
X001699Y011767D01*
X001746Y011783D01*
X001794Y011796D01*
X001844Y011805D01*
X001893Y011810D01*
X001944Y011811D01*
X001994Y011808D01*
X002043Y011801D01*
X002092Y011790D01*
X002140Y011775D01*
X002186Y011757D01*
X002231Y011735D01*
X002274Y011709D01*
X002315Y011680D01*
X002354Y011648D01*
X002390Y011613D01*
X002422Y011575D01*
X002452Y011535D01*
X002479Y011492D01*
X002502Y011448D01*
X002521Y011402D01*
X002537Y011354D01*
X002549Y011305D01*
X002557Y011256D01*
X002561Y011206D01*
X002561Y011156D01*
X002557Y011106D01*
X002549Y011057D01*
X002537Y011008D01*
X002521Y010960D01*
X002502Y010914D01*
X002479Y010870D01*
X002452Y010827D01*
X002422Y010787D01*
X002390Y010749D01*
X002354Y010714D01*
X002315Y010682D01*
X002274Y010653D01*
X002231Y010627D01*
X002186Y010605D01*
X002140Y010587D01*
X002092Y010572D01*
X002043Y010561D01*
X001994Y010554D01*
X001944Y010551D01*
X001893Y010552D01*
X001844Y010557D01*
X001794Y010566D01*
X001746Y010579D01*
X001699Y010595D01*
X001653Y010616D01*
X001609Y010640D01*
X001567Y010667D01*
X001527Y010697D01*
X001490Y010731D01*
X001456Y010768D01*
X001424Y010807D01*
X001396Y010848D01*
X001371Y010892D01*
X001350Y010937D01*
X001333Y010984D01*
X001319Y011032D01*
X001309Y011081D01*
X001303Y011131D01*
X001301Y011181D01*
D11*
X000845Y006175D02*
X000618Y006175D01*
X000561Y006118D01*
X000561Y005948D01*
X000901Y005948D01*
X000901Y006118D01*
X000845Y006175D01*
X000901Y005807D02*
X000561Y005807D01*
X000561Y005580D02*
X000901Y005807D01*
X000901Y005580D02*
X000561Y005580D01*
X000618Y005438D02*
X000561Y005382D01*
X000561Y005268D01*
X000618Y005211D01*
X000845Y005211D01*
X000901Y005268D01*
X000901Y005382D01*
X000845Y005438D01*
X000731Y005438D01*
X000731Y005325D01*
X000681Y004931D02*
X001181Y004931D01*
X001431Y004681D01*
X001681Y004931D01*
X002181Y004931D01*
X002431Y004681D01*
X002681Y004931D01*
X003181Y004931D01*
X003431Y004681D01*
X003431Y004181D01*
X003181Y003931D01*
X002681Y003931D01*
X002431Y004181D01*
X002181Y003931D01*
X001681Y003931D01*
X001431Y004181D01*
X001181Y003931D01*
X000681Y003931D01*
X000431Y004181D01*
X000431Y004681D01*
X000681Y004931D01*
X001431Y004681D02*
X001431Y004181D01*
X002431Y004181D02*
X002431Y004681D01*
X003061Y005268D02*
X003118Y005211D01*
X003175Y005211D01*
X003231Y005268D01*
X003231Y005382D01*
X003288Y005438D01*
X003345Y005438D01*
X003401Y005382D01*
X003401Y005268D01*
X003345Y005211D01*
X003401Y005580D02*
X003401Y005693D01*
X003401Y005636D02*
X003061Y005636D01*
X003061Y005580D02*
X003061Y005693D01*
X003118Y005825D02*
X003061Y005882D01*
X003061Y005995D01*
X003118Y006052D01*
X003118Y005825D02*
X003345Y005825D01*
X003401Y005882D01*
X003401Y005995D01*
X003345Y006052D01*
X003231Y006052D01*
X003231Y005939D01*
X003118Y005438D02*
X003061Y005382D01*
X003061Y005268D01*
D12*
X002861Y007971D02*
X003141Y008112D01*
X002861Y008252D01*
X002791Y008432D02*
X002721Y008502D01*
X002721Y008642D01*
X002791Y008712D01*
X003071Y008432D01*
X003141Y008502D01*
X003141Y008642D01*
X003071Y008712D01*
X002791Y008712D01*
X002791Y008432D02*
X003071Y008432D01*
X003071Y008892D02*
X003071Y008962D01*
X003141Y008962D01*
X003141Y008892D01*
X003071Y008892D01*
X003141Y009122D02*
X003141Y009403D01*
X003141Y009262D02*
X002721Y009262D01*
X002861Y009122D01*
X001141Y009190D02*
X000931Y009190D01*
X000861Y009120D01*
X000861Y008909D01*
X001141Y008909D01*
X001141Y008659D02*
X001141Y008519D01*
X001071Y008449D01*
X000931Y008449D01*
X000861Y008519D01*
X000861Y008659D01*
X000931Y008729D01*
X001001Y008729D01*
X001001Y008449D01*
X001001Y008269D02*
X001071Y008269D01*
X001141Y008199D01*
X001141Y008059D01*
X001071Y007989D01*
X001141Y007822D02*
X001141Y007682D01*
X001141Y007752D02*
X000861Y007752D01*
X000861Y007682D01*
X000931Y007502D02*
X000861Y007432D01*
X000861Y007221D01*
X000931Y007502D02*
X001071Y007502D01*
X001141Y007432D01*
X001141Y007221D01*
X000721Y007221D01*
X000721Y007752D02*
X000651Y007752D01*
X000791Y007989D02*
X000721Y008059D01*
X000721Y008199D01*
X000791Y008269D01*
X000931Y008059D02*
X000861Y007989D01*
X000791Y007989D01*
X000931Y008059D02*
X000931Y008199D01*
X001001Y008269D01*
X000931Y009370D02*
X000861Y009440D01*
X000861Y009650D01*
X000931Y009830D02*
X000861Y009900D01*
X000861Y010040D01*
X000931Y010110D01*
X001071Y010110D01*
X001141Y010040D01*
X001141Y009900D01*
X001071Y009830D01*
X000931Y009830D01*
X001071Y009650D02*
X001001Y009580D01*
X001001Y009440D01*
X000931Y009370D01*
X001141Y009580D02*
X001071Y009650D01*
X001141Y009580D02*
X001141Y009370D01*
X001141Y010290D02*
X000861Y010290D01*
X001001Y010290D02*
X000861Y010431D01*
X000861Y010501D01*
X000791Y003291D02*
X000791Y003011D01*
X000791Y003151D02*
X000371Y003151D01*
X000511Y003011D01*
X000441Y002831D02*
X000371Y002761D01*
X000371Y002621D01*
X000441Y002551D01*
X000721Y002551D01*
X000791Y002621D01*
X000791Y002761D01*
X000721Y002831D01*
X000791Y002291D02*
X000791Y002011D01*
X000791Y001831D02*
X000651Y001691D01*
X000651Y001761D02*
X000651Y001551D01*
X000651Y001761D02*
X000581Y001831D01*
X000441Y001831D01*
X000371Y001761D01*
X000371Y001551D01*
X000791Y001551D01*
X000791Y002151D02*
X000371Y002151D01*
X000511Y002011D01*
X001164Y001099D02*
X001164Y000888D01*
X001475Y000577D02*
X002388Y000577D01*
X002699Y000888D02*
X002699Y001099D01*
M02*
